<?xml version="1.0" standalone="no"?>
<!DOCTYPE svg PUBLIC "-//W3C//DTD SVG 20010904//EN"
 "http://www.w3.org/TR/2001/REC-SVG-20010904/DTD/svg10.dtd">
<svg version="1.0" xmlns="http://www.w3.org/2000/svg"
 width="1980.000000pt" height="1080.000000pt" viewBox="0 0 1980.000000 1080.000000"
 preserveAspectRatio="xMidYMid meet">

<g transform="translate(0.000000,1080.000000) scale(0.100000,-0.100000)"
fill="#000000" stroke="none">
<path d="M9615 9554 c-111 -11 -286 -37 -340 -50 -157 -38 -325 -87 -390 -115
-11 -4 -49 -20 -85 -35 -306 -124 -620 -335 -863 -578 -363 -363 -609 -804
-722 -1296 -33 -141 -32 -158 3 -171 15 -6 22 -13 15 -16 -7 -2 -21 0 -32 6
-17 9 -20 7 -25 -17 -16 -78 -35 -357 -26 -365 24 -20 101 -67 109 -67 6 0 11
-5 11 -11 0 -7 -21 -10 -60 -7 -34 2 -61 -1 -64 -7 -4 -13 13 -246 24 -315 5
-30 13 -87 20 -126 31 -200 121 -467 235 -699 214 -433 522 -786 921 -1053
348 -232 774 -386 1204 -433 136 -14 436 -14 570 0 493 55 968 246 1351 544
55 42 102 77 104 77 3 0 66 -121 140 -270 l135 -270 497 0 c417 0 495 2 483
13 -13 12 -187 109 -915 510 -110 61 -204 114 -210 119 -5 5 15 33 52 71 234
239 464 593 569 877 14 36 28 74 33 85 34 78 85 269 121 450 50 255 49 689 -1
945 -114 573 -350 1022 -748 1421 -357 357 -757 585 -1236 704 -55 14 -116 30
-135 35 -90 24 -280 42 -485 45 -121 1 -238 1 -260 -1z m264 -256 l1 -58 -45
0 -45 0 0 63 c0 74 6 84 45 89 36 4 43 -10 44 -94z m371 71 c0 -8 11 -9 31 -5
l32 6 -7 -62 c-12 -109 -12 -109 -60 -102 -22 4 -42 8 -44 9 -7 6 33 165 40
165 5 0 8 -5 8 -11z m-845 -29 c30 0 33 -3 44 -44 18 -74 16 -83 -26 -89 -21
-4 -41 -3 -45 1 -9 9 -26 150 -19 158 3 3 7 -1 9 -10 2 -11 14 -16 37 -16z
m-421 -98 c18 4 27 -1 35 -16 16 -32 41 -97 41 -106 0 -14 -71 -33 -81 -23 -9
9 -49 138 -49 157 0 5 7 3 15 -4 8 -7 26 -10 39 -8z m1751 -7 c-30 -100 -49
-145 -61 -145 -8 0 -28 7 -44 15 l-29 15 26 62 26 63 42 0 c24 0 41 -4 40 -10z
m370 -244 c-20 -40 -42 -74 -50 -77 -11 -4 -41 9 -74 33 -2 2 13 28 34 59 22
31 41 51 43 45 5 -16 49 -14 64 3 24 26 19 8 -17 -63z m-2521 41 c10 -2 21 0
25 7 7 11 71 -66 71 -86 0 -10 -68 -48 -74 -42 -2 2 -21 35 -41 73 -29 54 -32
67 -18 61 10 -4 26 -10 37 -13z m1376 -92 c509 -33 971 -241 1331 -600 499
-498 710 -1203 564 -1895 -129 -612 -545 -1147 -1105 -1418 -120 -58 -273
-118 -350 -137 -25 -6 -72 -18 -105 -26 -104 -26 -336 -53 -453 -54 -254 0
-563 60 -792 154 -473 196 -842 541 -1073 1002 -321 643 -276 1423 119 2034
106 164 283 362 431 482 329 267 749 432 1163 458 63 4 117 7 120 8 3 1 70 -3
150 -8z m-1711 -159 c36 -8 91 -47 91 -64 0 -3 -15 -16 -34 -31 l-35 -26 -44
57 c-60 80 -64 86 -41 79 11 -3 39 -10 63 -15z m3223 5 c20 6 6 -17 -60 -101
l-22 -28 -30 28 c-17 16 -30 32 -30 35 0 4 16 23 35 43 31 32 38 35 61 26 15
-5 35 -7 46 -3z m-3516 -349 c8 3 22 2 32 -2 9 -5 25 -7 35 -6 17 2 17 0 -4
-28 -13 -17 -28 -31 -34 -31 -6 0 -35 25 -65 56 -50 51 -52 54 -17 30 21 -13
45 -22 53 -19z m3824 21 c0 -3 -23 -25 -50 -48 l-51 -43 -24 23 c-30 28 -31
44 -5 63 20 14 130 18 130 5z m159 -371 c13 -3 35 -1 48 4 44 16 35 3 -21 -33
l-55 -36 -21 36 c-16 27 -18 37 -8 43 7 4 17 4 23 0 5 -5 21 -11 34 -14z
m-4220 -21 c14 -8 31 -12 38 -9 14 6 17 -6 5 -24 -5 -8 -19 -3 -46 18 -41 30
-39 38 3 15z m4394 -389 c40 7 26 -12 -15 -22 -26 -7 -28 -5 -27 21 1 17 3 22
6 12 3 -13 11 -16 36 -11z m-4523 -17 c0 -5 -5 -10 -11 -10 -5 0 -7 5 -4 10 3
6 8 10 11 10 2 0 4 -4 4 -10z m4620 -406 c0 -2 -7 -4 -15 -4 -8 0 -15 4 -15
10 0 5 7 7 15 4 8 -4 15 -8 15 -10z m-4986 -875 c-8 -14 -24 -10 -24 6 0 9 6
12 15 9 8 -4 12 -10 9 -15z"/>
<path d="M9606 8829 c-149 -16 -350 -67 -504 -128 -306 -122 -576 -320 -787
-576 -110 -133 -174 -234 -250 -390 -142 -291 -198 -538 -198 -870 0 -216 16
-340 69 -529 172 -611 649 -1121 1239 -1325 210 -72 363 -100 586 -108 343
-12 615 44 916 187 458 218 821 613 998 1085 89 237 125 438 125 695 0 362
-90 691 -274 1005 -159 269 -411 524 -677 683 -369 222 -807 317 -1243 271z
m445 -165 c89 -8 96 -13 76 -56 -8 -18 -61 -136 -117 -263 -56 -126 -108 -243
-116 -260 -39 -86 -170 -381 -202 -457 -20 -48 -40 -88 -44 -88 -8 0 -956 665
-977 685 -17 17 -9 25 109 109 223 159 447 256 720 311 158 32 334 38 551 19z
m503 -140 c380 -166 686 -453 878 -824 48 -91 93 -198 87 -204 -4 -4 -104 -16
-344 -41 -77 -8 -203 -21 -280 -30 -77 -8 -205 -22 -285 -30 -80 -8 -176 -19
-215 -24 -38 -5 -72 -7 -75 -4 -4 4 11 199 45 578 8 88 21 239 30 335 23 270
26 290 41 290 8 0 61 -21 118 -46z m-1988 -651 c59 -82 169 -231 243 -333 74
-102 164 -225 201 -275 122 -166 154 -216 144 -224 -16 -14 -1084 -504 -1089
-499 -8 8 -35 262 -35 333 0 245 68 540 180 781 59 124 216 364 239 364 5 0
58 -66 117 -147z m1540 5 c-3 -18 -10 -127 -16 -243 -6 -115 -13 -215 -15
-221 -2 -8 -33 -3 -97 13 -51 14 -95 27 -97 29 -2 1 28 68 67 148 39 80 88
182 108 226 39 83 60 104 50 48z m-617 -524 c6 -5 -123 -144 -134 -144 -5 1
-30 31 -55 68 -25 37 -87 127 -137 201 -51 74 -93 138 -93 142 0 6 396 -247
419 -267z m459 -49 c51 -59 2 -155 -79 -155 -28 0 -89 62 -89 89 0 33 28 81
53 91 36 15 90 3 115 -25z m1669 -181 c17 -115 16 -376 -2 -497 -42 -277 -142
-536 -296 -763 -38 -55 -77 -108 -88 -118 -23 -20 20 -73 -351 434 -123 168
-259 354 -302 413 l-79 108 113 53 c676 317 974 454 983 452 6 -2 15 -38 22
-82z m-758 32 c-8 -9 -443 -226 -446 -223 -8 8 -53 180 -48 186 2 5 84 14 182
20 98 7 187 14 198 15 34 5 119 6 114 2z m-1328 -135 c20 -20 29 -39 29 -61 0
-43 -47 -90 -90 -90 -42 0 -67 15 -86 51 -47 92 72 174 147 100z m737 -176
c77 -89 -57 -206 -138 -120 -35 37 -30 92 10 128 27 24 39 28 69 23 21 -3 45
-16 59 -31z m-986 -127 c12 -48 20 -89 18 -92 -3 -2 -106 -12 -230 -21 -124
-8 -233 -18 -242 -21 -10 -3 -18 -2 -18 3 0 11 433 231 442 224 4 -3 17 -45
30 -93z m569 -157 c40 -40 39 -82 -1 -123 -28 -27 -35 -30 -72 -24 -51 8 -55
11 -74 47 -12 25 -13 37 -4 65 23 69 99 87 151 35z m524 -108 c33 -49 95 -139
138 -202 43 -62 76 -115 74 -118 -4 -3 -379 237 -401 258 -8 7 111 149 125
149 3 0 32 -39 64 -87z m-1029 -120 c-4 -27 -11 -102 -16 -168 -6 -66 -17
-190 -25 -275 -9 -85 -22 -225 -30 -310 -24 -266 -37 -395 -39 -397 -2 -2 -29
8 -62 21 -351 141 -627 363 -839 676 -54 80 -185 333 -185 358 0 16 19 19 190
37 381 40 530 56 830 89 63 7 130 14 148 15 l34 1 -6 -47z m362 -20 c39 -9 72
-20 72 -25 0 -13 -203 -428 -209 -428 -6 0 -1 120 14 363 7 114 8 118 29 113
11 -3 54 -13 94 -23z m847 -483 c237 -166 434 -306 439 -311 34 -31 -368 -273
-562 -338 -197 -66 -400 -101 -594 -101 -149 0 -298 18 -298 35 0 12 21 63 72
175 12 25 60 135 108 245 191 436 269 614 284 644 l17 31 52 -39 c29 -21 246
-175 482 -341z"/>
<path d="M1695 3350 c-6 -10 -8 -471 -1 -477 1 -1 114 -5 252 -9 137 -3 250
-7 250 -8 6 -6 7 -1396 2 -1411 -5 -12 -22 -29 -39 -39 -30 -18 -65 -18 -673
-16 -352 2 -647 2 -655 2 -12 -2 -13 -40 -7 -239 4 -131 10 -241 14 -245 4 -3
385 -8 847 -10 909 -3 905 -3 1015 50 61 30 114 92 141 164 49 130 47 87 54
1190 3 570 2 1038 -2 1041 -4 3 -274 8 -599 12 -450 5 -593 4 -599 -5z"/>
<path d="M3735 3342 c-187 -15 -286 -76 -338 -205 -21 -51 -22 -63 -20 -509 2
-432 4 -460 22 -496 38 -74 125 -134 242 -168 46 -13 157 -16 714 -21 609 -4
663 -6 702 -23 71 -31 77 -54 69 -260 -7 -185 -17 -239 -49 -267 -18 -17 -70
-18 -861 -18 l-841 0 0 -240 0 -240 235 -6 c438 -12 1798 -10 1869 2 91 16
182 59 214 101 74 97 84 165 92 620 6 375 5 380 -41 523 -24 73 -49 102 -115
136 -113 56 -118 57 -843 64 -727 7 -715 6 -737 62 -6 16 -7 104 -3 236 6 189
9 212 26 229 19 19 39 19 859 12 l839 -7 1 199 c0 109 3 211 5 226 3 19 -1 30
-13 36 -16 9 -1941 22 -2028 14z"/>
<path d="M6266 3322 c-2 -4 -6 -556 -8 -1227 l-3 -1220 330 0 330 0 6 1220 c3
671 4 1223 2 1228 -6 9 -650 9 -657 -1z"/>
<path d="M7954 3128 c-273 -293 -473 -508 -523 -563 -25 -27 -105 -113 -176
-190 -72 -77 -149 -161 -173 -187 l-42 -48 0 -109 c0 -76 4 -112 13 -119 8 -7
188 -12 547 -14 520 -3 536 -4 570 -24 28 -16 38 -32 52 -80 16 -53 18 -106
18 -491 l0 -433 23 -5 c12 -3 162 -4 332 -3 l310 3 7 80 c3 44 12 261 18 483
10 365 10 409 -5 460 -9 31 -23 82 -32 112 -45 158 -148 253 -318 294 -40 9
-155 16 -350 20 -159 4 -291 9 -293 11 -7 7 51 70 258 287 107 112 280 293
385 403 104 110 209 220 232 244 24 24 40 47 37 52 -3 5 -164 9 -358 9 l-353
0 -179 -192z"/>
<path d="M10647 3302 c-12 -19 -16 -293 -17 -1367 l-1 -1080 322 -8 c177 -4
326 -4 331 1 8 8 25 2451 17 2453 -2 0 -149 3 -325 6 -211 4 -323 2 -327 -5z"/>
<path d="M12512 3294 c-7 -3 -34 -29 -61 -57 -26 -29 -117 -126 -201 -217
-196 -210 -380 -408 -450 -485 -30 -32 -85 -91 -121 -130 -36 -38 -110 -117
-163 -175 l-97 -105 3 -120 3 -120 175 -6 c96 -4 338 -7 537 -8 314 -1 367 -3
397 -17 71 -35 77 -72 83 -579 3 -279 9 -432 16 -437 5 -3 153 -7 328 -7 l318
-2 5 23 c3 13 8 140 12 283 3 143 9 346 13 450 5 141 3 206 -7 250 -52 238
-104 324 -236 392 -100 51 -130 55 -458 60 -188 3 -308 8 -308 14 0 6 38 49
84 97 46 48 102 107 125 132 23 25 81 86 129 135 48 50 161 169 252 265 91 96
201 212 245 258 44 46 82 88 83 93 2 5 -42 9 -100 9 -56 0 -213 2 -348 5 -135
3 -251 2 -258 -1z"/>
<path d="M13505 3258 c4 -18 13 -43 21 -55 8 -12 14 -29 14 -37 0 -9 6 -30 14
-48 13 -32 27 -68 62 -160 8 -24 22 -56 30 -71 8 -16 14 -35 14 -42 0 -8 6
-29 14 -47 8 -18 25 -60 37 -93 13 -33 27 -64 31 -69 4 -6 8 -16 8 -24 0 -13
54 -159 80 -217 9 -21 62 -162 110 -295 15 -41 32 -88 39 -105 24 -63 44 -111
57 -143 8 -18 14 -41 14 -52 0 -10 5 -22 10 -25 6 -3 10 -13 10 -22 0 -8 6
-29 14 -46 37 -82 56 -131 56 -142 0 -7 7 -26 15 -41 8 -16 15 -36 15 -45 0
-8 4 -19 8 -25 10 -11 27 -56 122 -314 107 -290 112 -301 138 -311 13 -5 183
-9 377 -9 l354 0 24 52 c13 29 31 71 40 93 8 22 38 96 67 165 28 69 56 136 62
150 5 14 16 39 23 55 14 34 53 130 66 160 22 54 112 272 119 290 12 28 76 185
112 275 16 41 36 89 43 105 8 17 28 66 45 110 36 89 50 124 73 175 9 19 26 60
37 90 11 30 24 64 29 75 8 17 68 163 92 220 4 11 24 61 44 110 20 50 58 140
85 202 37 88 45 115 35 123 -8 7 -120 9 -330 8 l-318 -3 -29 -70 c-16 -38 -45
-113 -65 -165 -20 -52 -43 -113 -53 -135 -9 -22 -25 -62 -35 -90 -10 -27 -23
-63 -30 -80 -7 -16 -34 -86 -60 -155 -26 -69 -53 -138 -60 -155 -15 -33 -29
-69 -75 -195 -42 -111 -69 -180 -80 -205 -5 -11 -26 -63 -45 -115 -55 -145
-96 -252 -110 -285 -8 -16 -16 -42 -20 -57 -13 -50 -55 -63 -55 -17 0 11 -5
30 -12 42 -6 12 -15 35 -19 52 -7 27 -51 152 -93 265 -9 25 -28 77 -41 115
-13 39 -40 115 -60 170 -20 55 -39 111 -42 125 -3 14 -9 30 -13 35 -4 6 -13
26 -18 45 -6 19 -20 60 -32 90 -12 30 -25 69 -30 85 -4 17 -24 75 -44 130 -43
117 -98 272 -156 440 -23 66 -49 126 -58 133 -12 9 -98 12 -350 12 l-334 0 7
-32z"/>
<path d="M16509 3264 c-2 -5 -2 -115 1 -244 l5 -235 827 -6 c789 -5 829 -6
863 -25 48 -26 54 -52 62 -290 5 -177 4 -206 -12 -247 -34 -88 8 -82 -554 -79
-273 2 -499 7 -503 11 -4 3 -9 108 -10 231 l-3 225 -330 0 -330 0 -7 -345
c-22 -1081 -26 -1426 -16 -1437 15 -19 647 -19 653 0 2 6 8 210 12 452 l8 440
520 0 c490 0 523 -1 563 -19 39 -18 56 -46 35 -59 -5 -3 -8 -191 -8 -419 l0
-413 334 -3 c184 -1 339 2 343 6 5 5 9 200 8 433 -1 396 -2 427 -21 490 -34
112 -101 174 -227 208 -50 14 -51 33 -1 42 76 13 145 64 172 129 23 58 29 119
41 485 12 340 12 352 -7 415 -25 80 -83 141 -177 186 -141 69 -87 66 -1216 71
-588 3 -1023 2 -1025 -3z"/>
</g>
</svg>
