<?xml version="1.0" encoding="UTF-8"?>
<!DOCTYPE svg PUBLIC "-//W3C//DTD SVG 1.1//EN" "http://www.w3.org/Graphics/SVG/1.1/DTD/svg11.dtd">
<svg xmlns="http://www.w3.org/2000/svg" version="1.1" width="723px" height="671px" style="shape-rendering:geometricPrecision; text-rendering:geometricPrecision; image-rendering:optimizeQuality; fill-rule:evenodd; clip-rule:evenodd" xmlns:xlink="http://www.w3.org/1999/xlink">
<g><path style="opacity:1" fill="#fefefe" d="M -0.5,-0.5 C 240.5,-0.5 481.5,-0.5 722.5,-0.5C 722.5,223.167 722.5,446.833 722.5,670.5C 481.5,670.5 240.5,670.5 -0.5,670.5C -0.5,446.833 -0.5,223.167 -0.5,-0.5 Z"/></g>
<g><path style="opacity:1" fill="#c8edc4" d="M 634.5,10.5 C 639.058,10.4665 643.058,11.7998 646.5,14.5C 642.368,13.4693 638.368,12.136 634.5,10.5 Z"/></g>
<g><path style="opacity:1" fill="#bbb2b0" d="M 133.5,90.5 C 129.574,90.7682 125.907,89.9349 122.5,88C 124.041,86.6288 125.375,85.1288 126.5,83.5C 157.506,58.3252 191.839,38.8252 229.5,25C 242.022,22.7359 254.355,19.7359 266.5,16C 282.159,14.7878 297.826,14.1212 313.5,14C 300.022,19.6465 286.022,23.6465 271.5,26C 247.72,34.5356 224.053,43.5356 200.5,53C 185.832,60.3336 171.165,67.667 156.5,75C 148.805,80.1768 141.138,85.3434 133.5,90.5 Z"/></g>
<g><path style="opacity:1" fill="#44ba31" d="M 634.5,10.5 C 638.368,12.136 642.368,13.4693 646.5,14.5C 654.266,17.3988 662.099,20.0655 670,22.5C 674.101,24.1326 677.934,26.1326 681.5,28.5C 681.393,30.3786 681.893,30.7119 683,29.5C 683.71,30.9733 684.876,31.6399 686.5,31.5C 686.5,54.1667 686.5,76.8333 686.5,99.5C 662.167,99.5 637.833,99.5 613.5,99.5C 613.5,98.5 613.5,97.5 613.5,96.5C 627.908,74.2481 645.408,54.5814 666,37.5C 666.769,32.5219 664.936,31.3552 660.5,34C 639.896,47.4279 621.563,63.5946 605.5,82.5C 578.167,82.5 550.833,82.5 523.5,82.5C 523.5,65.5 523.5,48.5 523.5,31.5C 526.608,31.6254 528.608,30.2921 529.5,27.5C 549.308,18.2846 569.974,11.1179 591.5,6C 606.187,4.42652 620.521,5.92652 634.5,10.5 Z"/></g>
<g><path style="opacity:1" fill="#f9fdf9" d="M 613.5,96.5 C 604.171,108.473 596.338,121.473 590,135.5C 585.601,139.409 581.101,143.076 576.5,146.5C 574.606,147.048 572.94,148.048 571.5,149.5C 570.914,149.291 570.414,148.957 570,148.5C 565.985,136.808 560.985,125.475 555,114.5C 551.5,110.661 547.667,107.161 543.5,104C 544.344,101.993 545.677,100.493 547.5,99.5C 558.808,90.984 567.141,93.3173 572.5,106.5C 572.755,108.967 573.755,110.967 575.5,112.5C 576.931,113.78 577.598,115.447 577.5,117.5C 582.432,113.033 586.599,107.699 590,101.5C 595.001,95.0024 600.167,88.6691 605.5,82.5C 621.563,63.5946 639.896,47.4279 660.5,34C 664.936,31.3552 666.769,32.5219 666,37.5C 645.408,54.5814 627.908,74.2481 613.5,96.5 Z"/></g>
<g><path style="opacity:1" fill="#44b734" d="M 529.5,27.5 C 528.608,30.2921 526.608,31.6254 523.5,31.5C 523.5,48.5 523.5,65.5 523.5,82.5C 550.833,82.5 578.167,82.5 605.5,82.5C 600.167,88.6691 595.001,95.0024 590,101.5C 586.599,107.699 582.432,113.033 577.5,117.5C 577.598,115.447 576.931,113.78 575.5,112.5C 575.245,110.033 574.245,108.033 572.5,106.5C 567.141,93.3173 558.808,90.984 547.5,99.5C 539.5,99.5 531.5,99.5 523.5,99.5C 522.486,81.5197 522.152,58.853 522.5,31.5C 523.736,28.3787 526.069,27.0454 529.5,27.5 Z"/></g>
<g><path style="opacity:1" fill="#b3acab" d="M 332.5,64.5 C 348.833,64.5 365.167,64.5 381.5,64.5C 381.649,65.552 381.483,66.552 381,67.5C 379,69.5 377,71.5 375,73.5C 374.51,74.7932 374.343,76.1266 374.5,77.5C 379.179,77.3342 383.845,77.5008 388.5,78C 387.257,79.1545 386.257,80.4878 385.5,82C 390.833,82.3333 396.167,82.6667 401.5,83C 398.388,83.4538 396.722,85.2871 396.5,88.5C 394.955,89.4519 393.288,89.7852 391.5,89.5C 385.033,89.6703 378.7,89.0037 372.5,87.5C 353.338,86.3377 334.004,86.171 314.5,87C 313.584,87.2784 312.918,87.7784 312.5,88.5C 282.151,91.695 253.151,99.5283 225.5,112C 192.458,127.53 162.791,148.03 136.5,173.5C 133.623,172.021 130.623,170.688 127.5,169.5C 126.295,168.423 125.628,167.09 125.5,165.5C 137.653,151.851 150.986,139.351 165.5,128C 215.454,92.0834 271.12,70.9167 332.5,64.5 Z"/></g>
<g><path style="opacity:1" fill="#b9b1b0" d="M 391.5,89.5 C 393.288,89.7852 394.955,89.4519 396.5,88.5C 396.722,85.2871 398.388,83.4538 401.5,83C 396.167,82.6667 390.833,82.3333 385.5,82C 386.257,80.4878 387.257,79.1545 388.5,78C 383.845,77.5008 379.179,77.3342 374.5,77.5C 374.343,76.1266 374.51,74.7932 375,73.5C 377,71.5 379,69.5 381,67.5C 381.483,66.552 381.649,65.552 381.5,64.5C 365.167,64.5 348.833,64.5 332.5,64.5C 369.698,60.9743 406.698,63.141 443.5,71C 445.373,73.2089 447.54,75.0422 450,76.5C 454.411,87.5009 451.244,95.3342 440.5,100C 437.5,100.667 434.5,100.667 431.5,100C 418.115,96.1704 404.781,92.6704 391.5,89.5 Z"/></g>
<g><path style="opacity:1" fill="#d5d4d5" d="M 372.5,87.5 C 352.484,87.2696 332.484,87.6029 312.5,88.5C 312.918,87.7784 313.584,87.2784 314.5,87C 334.004,86.171 353.338,86.3377 372.5,87.5 Z"/></g>
<g><path style="opacity:1" fill="#c8c2c2" d="M 126.5,83.5 C 125.375,85.1288 124.041,86.6288 122.5,88C 125.907,89.9349 129.574,90.7682 133.5,90.5C 96.1469,117.52 64.1469,149.853 37.5,187.5C 36.4173,186.635 36.2506,185.635 37,184.5C 44.1628,174.844 50.8295,164.844 57,154.5C 66.3333,143.167 75.6667,131.833 85,120.5C 98.129,107.195 111.962,94.8612 126.5,83.5 Z"/></g>
<g><path style="opacity:1" fill="#43b437" d="M 681.5,28.5 C 684.325,28.0807 686.491,29.0807 688,31.5C 688.667,65.5 688.667,99.5 688,133.5C 687.117,136.102 685.617,138.269 683.5,140C 678.934,143.414 674.268,146.58 669.5,149.5C 638.875,148.349 608.209,148.182 577.5,149C 576.241,149.982 574.908,150.315 573.5,150C 574.71,148.961 575.71,147.794 576.5,146.5C 581.101,143.076 585.601,139.409 590,135.5C 596.338,121.473 604.171,108.473 613.5,96.5C 613.5,97.5 613.5,98.5 613.5,99.5C 637.833,99.5 662.167,99.5 686.5,99.5C 686.5,76.8333 686.5,54.1667 686.5,31.5C 684.876,31.6399 683.71,30.9733 683,29.5C 681.893,30.7119 681.393,30.3786 681.5,28.5 Z"/></g>
<g><path style="opacity:1" fill="#b3e4b2" d="M 572.5,106.5 C 574.245,108.033 575.245,110.033 575.5,112.5C 573.755,110.967 572.755,108.967 572.5,106.5 Z"/></g>
<g><path style="opacity:1" fill="#a7a8ac" d="M 389.5,122.5 C 369.858,120.456 350.192,120.123 330.5,121.5C 330.611,120.883 330.944,120.383 331.5,120C 349.519,119.257 367.519,119.59 385.5,121C 387.058,121.21 388.391,121.71 389.5,122.5 Z"/></g>
<g><path style="opacity:1" fill="#bebfc2" d="M 424.5,128.5 C 430.166,129.39 435.5,131.057 440.5,133.5C 434.834,132.61 429.5,130.943 424.5,128.5 Z"/></g>
<g><path style="opacity:1" fill="#6d6c70" d="M 326.5,121.5 C 322.764,122.989 318.764,123.656 314.5,123.5C 314.431,128.616 315.098,133.616 316.5,138.5C 315.596,137.791 315.263,136.791 315.5,135.5C 312.881,135.768 310.381,135.435 308,134.5C 307.436,139.194 307.603,143.86 308.5,148.5C 306.664,141.401 305.331,134.067 304.5,126.5C 301.098,126.342 297.764,126.676 294.5,127.5C 294.611,126.883 294.944,126.383 295.5,126C 301.647,125.537 307.647,124.371 313.5,122.5C 317.818,121.918 322.151,121.585 326.5,121.5 Z"/></g>
<g><path style="opacity:1" fill="#706e73" d="M 389.5,122.5 C 397.532,122.384 405.199,123.718 412.5,126.5C 410.533,126.261 408.699,126.594 407,127.5C 405.694,135.689 404.194,143.689 402.5,151.5C 403.127,146.859 403.46,142.193 403.5,137.5C 401.208,137.756 399.041,137.423 397,136.5C 395.971,140.266 394.804,143.933 393.5,147.5C 394.755,139.55 395.755,131.55 396.5,123.5C 393.941,123.802 391.607,123.468 389.5,122.5 Z"/></g>
<g><path style="opacity:1" fill="#484954" d="M 389.5,122.5 C 391.607,123.468 393.941,123.802 396.5,123.5C 395.755,131.55 394.755,139.55 393.5,147.5C 392.701,150.43 392.368,153.43 392.5,156.5C 395.833,156.833 399.167,157.167 402.5,157.5C 402.5,155.5 402.5,153.5 402.5,151.5C 404.194,143.689 405.694,135.689 407,127.5C 408.699,126.594 410.533,126.261 412.5,126.5C 416.5,127.167 420.5,127.833 424.5,128.5C 429.5,130.943 434.834,132.61 440.5,133.5C 441.141,134.482 441.807,135.482 442.5,136.5C 440.154,142.546 437.82,148.546 435.5,154.5C 433.744,158.272 432.744,162.272 432.5,166.5C 435.455,167.159 438.455,167.492 441.5,167.5C 442.117,167.389 442.617,167.056 443,166.5C 445.205,157.45 448.038,148.617 451.5,140C 451.836,138.97 452.503,138.47 453.5,138.5C 463.501,142.955 473.501,147.622 483.5,152.5C 484.412,153.738 484.579,155.072 484,156.5C 482.396,160.048 480.563,163.382 478.5,166.5C 475.423,170.915 472.757,175.582 470.5,180.5C 471.268,183.562 473.268,185.228 476.5,185.5C 479.811,184.022 482.311,181.689 484,178.5C 484.972,174.564 486.472,170.897 488.5,167.5C 490.268,165.492 491.934,163.326 493.5,161C 494.448,160.517 495.448,160.351 496.5,160.5C 506.336,165.674 515.336,172.007 523.5,179.5C 520.598,184.413 517.265,189.08 513.5,193.5C 510.175,196.832 507.175,200.499 504.5,204.5C 506.219,207.219 508.553,209.219 511.5,210.5C 515.868,206.133 519.868,201.467 523.5,196.5C 526.246,192.749 529.58,189.749 533.5,187.5C 542.188,194.188 549.854,201.854 556.5,210.5C 556.657,211.873 556.49,213.207 556,214.5C 551.306,218.365 546.806,222.365 542.5,226.5C 541.167,227.167 539.833,227.833 538.5,228.5C 521.26,227.641 503.927,227.141 486.5,227C 487.71,228.039 488.71,229.206 489.5,230.5C 484.909,227.915 480.576,224.915 476.5,221.5C 448.56,200.046 416.894,187.713 381.5,184.5C 380.048,183.698 378.382,183.198 376.5,183C 361.833,182.333 347.167,182.333 332.5,183C 330.942,183.21 329.609,183.71 328.5,184.5C 314.066,185.444 300.066,188.278 286.5,193C 263.877,201.476 243.21,213.31 224.5,228.5C 224.631,227.624 224.298,226.957 223.5,226.5C 206.833,227.833 190.167,227.833 173.5,226.5C 172.702,226.957 172.369,227.624 172.5,228.5C 165.83,223.82 159.497,218.654 153.5,213C 154.252,212.329 154.586,211.496 154.5,210.5C 160.833,203.5 167.5,196.833 174.5,190.5C 176.463,189.316 178.463,188.483 180.5,188C 186.654,195.813 193.154,203.313 200,210.5C 202.156,209.015 204.323,207.515 206.5,206C 207.451,205.282 207.617,204.449 207,203.5C 201,196.833 195,190.167 189,183.5C 188.209,182.255 187.709,180.922 187.5,179.5C 195.993,171.676 205.326,165.01 215.5,159.5C 216.496,159.414 217.329,159.748 218,160.5C 222.917,169.337 228.084,178.004 233.5,186.5C 236.719,185.397 239.385,183.563 241.5,181C 235.834,172.166 230.834,162.999 226.5,153.5C 228.38,153.771 229.713,153.104 230.5,151.5C 231.222,150.449 232.222,149.782 233.5,149.5C 235.967,149.245 237.967,148.245 239.5,146.5C 244.544,142.824 250.21,140.49 256.5,139.5C 257.847,138.829 259.014,138.829 260,139.5C 261.689,144.058 263.023,148.725 264,153.5C 264.383,154.056 264.883,154.389 265.5,154.5C 267.572,158.586 268.906,162.919 269.5,167.5C 270,167.833 270.5,168.167 271,168.5C 272.927,167.139 275.094,166.306 277.5,166C 278.342,163.932 278.342,161.765 277.5,159.5C 276.16,155.711 274.827,152.044 273.5,148.5C 272.47,144.577 271.137,140.744 269.5,137C 270.071,135.401 271.071,134.234 272.5,133.5C 279.477,130.512 286.81,128.512 294.5,127.5C 297.764,126.676 301.098,126.342 304.5,126.5C 305.331,134.067 306.664,141.401 308.5,148.5C 308.232,151.119 308.565,153.619 309.5,156C 312.777,155.799 316.111,155.632 319.5,155.5C 318.859,149.642 317.859,143.975 316.5,138.5C 315.098,133.616 314.431,128.616 314.5,123.5C 318.764,123.656 322.764,122.989 326.5,121.5C 327.833,121.5 329.167,121.5 330.5,121.5C 350.192,120.123 369.858,120.456 389.5,122.5 Z"/></g>
<g><path style="opacity:1" fill="#727074" d="M 360.5,142.5 C 359.698,141.048 359.198,139.382 359,137.5C 358.692,138.308 358.192,138.975 357.5,139.5C 355.677,138.253 353.677,137.586 351.5,137.5C 351.5,142.5 351.5,147.5 351.5,152.5C 354.5,152.5 357.5,152.5 360.5,152.5C 357.375,153.479 354.042,153.813 350.5,153.5C 350.08,143.4 350.746,133.4 352.5,123.5C 352.833,123.167 353.167,122.833 353.5,122.5C 355.709,123.106 357.876,123.773 360,124.5C 360.499,130.491 360.666,136.491 360.5,142.5 Z"/></g>
<g><path style="opacity:1" fill="#8e8b8e" d="M 360.5,142.5 C 360.5,145.833 360.5,149.167 360.5,152.5C 357.5,152.5 354.5,152.5 351.5,152.5C 351.5,147.5 351.5,142.5 351.5,137.5C 353.677,137.586 355.677,138.253 357.5,139.5C 358.192,138.975 358.692,138.308 359,137.5C 359.198,139.382 359.698,141.048 360.5,142.5 Z"/></g>
<g><path style="opacity:1" fill="#6c6b70" d="M 272.5,133.5 C 271.071,134.234 270.071,135.401 269.5,137C 271.137,140.744 272.47,144.577 273.5,148.5C 270.432,146.368 267.099,146.035 263.5,147.5C 264.325,149.801 264.992,152.135 265.5,154.5C 264.883,154.389 264.383,154.056 264,153.5C 263.023,148.725 261.689,144.058 260,139.5C 259.014,138.829 257.847,138.829 256.5,139.5C 259.551,137.543 262.885,135.876 266.5,134.5C 268.453,133.844 270.453,133.511 272.5,133.5 Z"/></g>
<g><path style="opacity:1" fill="#717074" d="M 440.5,133.5 C 445.011,134.931 449.345,136.598 453.5,138.5C 452.503,138.47 451.836,138.97 451.5,140C 448.038,148.617 445.205,157.45 443,166.5C 442.617,167.056 442.117,167.389 441.5,167.5C 443.131,162.976 444.131,158.309 444.5,153.5C 442.409,153.682 440.409,153.348 438.5,152.5C 437.482,153.193 436.482,153.859 435.5,154.5C 437.82,148.546 440.154,142.546 442.5,136.5C 441.807,135.482 441.141,134.482 440.5,133.5 Z"/></g>
<g><path style="opacity:1" fill="#95969b" d="M 239.5,146.5 C 237.967,148.245 235.967,149.245 233.5,149.5C 235.033,147.755 237.033,146.755 239.5,146.5 Z"/></g>
<g><path style="opacity:1" fill="#8a888b" d="M 316.5,138.5 C 317.859,143.975 318.859,149.642 319.5,155.5C 316.111,155.632 312.777,155.799 309.5,156C 308.565,153.619 308.232,151.119 308.5,148.5C 307.603,143.86 307.436,139.194 308,134.5C 310.381,135.435 312.881,135.768 315.5,135.5C 315.263,136.791 315.596,137.791 316.5,138.5 Z"/></g>
<g><path style="opacity:1" fill="#42b138" d="M 522.5,31.5 C 522.152,58.853 522.486,81.5197 523.5,99.5C 531.5,99.5 539.5,99.5 547.5,99.5C 545.677,100.493 544.344,101.993 543.5,104C 547.667,107.161 551.5,110.661 555,114.5C 560.985,125.475 565.985,136.808 570,148.5C 570.414,148.957 570.914,149.291 571.5,149.5C 572.94,148.048 574.606,147.048 576.5,146.5C 575.71,147.794 574.71,148.961 573.5,150C 574.908,150.315 576.241,149.982 577.5,149C 608.209,148.182 638.875,148.349 669.5,149.5C 663.423,155.238 656.756,160.238 649.5,164.5C 620.19,165.635 590.857,165.801 561.5,165C 560.756,163.961 559.756,163.461 558.5,163.5C 550.673,157.856 542.673,152.356 534.5,147C 529.981,143.478 525.815,139.645 522,135.5C 521.169,100.664 521.336,65.9976 522.5,31.5 Z"/></g>
<g><path style="opacity:1" fill="#8e8c8f" d="M 402.5,151.5 C 402.5,153.5 402.5,155.5 402.5,157.5C 399.167,157.167 395.833,156.833 392.5,156.5C 392.368,153.43 392.701,150.43 393.5,147.5C 394.804,143.933 395.971,140.266 397,136.5C 399.041,137.423 401.208,137.756 403.5,137.5C 403.46,142.193 403.127,146.859 402.5,151.5 Z"/></g>
<g><path style="opacity:1" fill="#8a888c" d="M 441.5,167.5 C 438.455,167.492 435.455,167.159 432.5,166.5C 432.744,162.272 433.744,158.272 435.5,154.5C 436.482,153.859 437.482,153.193 438.5,152.5C 440.409,153.348 442.409,153.682 444.5,153.5C 444.131,158.309 443.131,162.976 441.5,167.5 Z"/></g>
<g><path style="opacity:1" fill="#878589" d="M 273.5,148.5 C 274.827,152.044 276.16,155.711 277.5,159.5C 278.342,161.765 278.342,163.932 277.5,166C 275.094,166.306 272.927,167.139 271,168.5C 270.5,168.167 270,167.833 269.5,167.5C 268.906,162.919 267.572,158.586 265.5,154.5C 264.992,152.135 264.325,149.801 263.5,147.5C 267.099,146.035 270.432,146.368 273.5,148.5 Z"/></g>
<g><path style="opacity:1" fill="#6d6c72" d="M 483.5,152.5 C 488.612,153.954 492.945,156.62 496.5,160.5C 495.448,160.351 494.448,160.517 493.5,161C 491.934,163.326 490.268,165.492 488.5,167.5C 485.491,167.019 482.158,166.685 478.5,166.5C 480.563,163.382 482.396,160.048 484,156.5C 484.579,155.072 484.412,153.738 483.5,152.5 Z"/></g>
<g><path style="opacity:1" fill="#40ae3a" d="M 558.5,163.5 C 559.756,163.461 560.756,163.961 561.5,165C 590.857,165.801 620.19,165.635 649.5,164.5C 635.5,174.833 621.5,185.167 607.5,195.5C 604.549,195.713 601.882,195.046 599.5,193.5C 585.292,184.23 571.626,174.23 558.5,163.5 Z"/></g>
<g><path style="opacity:1" fill="#78777d" d="M 230.5,151.5 C 229.713,153.104 228.38,153.771 226.5,153.5C 230.834,162.999 235.834,172.166 241.5,181C 239.385,183.563 236.719,185.397 233.5,186.5C 228.084,178.004 222.917,169.337 218,160.5C 217.329,159.748 216.496,159.414 215.5,159.5C 220.044,156.087 225.044,153.421 230.5,151.5 Z"/></g>
<g><path style="opacity:1" fill="#858489" d="M 478.5,166.5 C 482.158,166.685 485.491,167.019 488.5,167.5C 486.472,170.897 484.972,174.564 484,178.5C 482.311,181.689 479.811,184.022 476.5,185.5C 473.268,185.228 471.268,183.562 470.5,180.5C 472.757,175.582 475.423,170.915 478.5,166.5 Z"/></g>
<g><path style="opacity:1" fill="#bab7bd" d="M 381.5,184.5 C 363.835,183.185 346.168,183.185 328.5,184.5C 329.609,183.71 330.942,183.21 332.5,183C 347.167,182.333 361.833,182.333 376.5,183C 378.382,183.198 380.048,183.698 381.5,184.5 Z"/></g>
<g><path style="opacity:1" fill="#6c6c74" d="M 523.5,179.5 C 527.207,181.688 530.54,184.355 533.5,187.5C 529.58,189.749 526.246,192.749 523.5,196.5C 523.5,195.5 523.5,194.5 523.5,193.5C 519.989,193.163 516.656,193.163 513.5,193.5C 517.265,189.08 520.598,184.413 523.5,179.5 Z"/></g>
<g><path style="opacity:1" fill="#474955" d="M 469.5,227.5 C 469.833,228.167 470.167,228.833 470.5,229.5C 468.009,229.171 465.843,228.171 464,226.5C 456.579,227.316 449.079,227.816 441.5,228C 440.66,229.666 441.16,229.833 443,228.5C 443.483,229.448 443.649,230.448 443.5,231.5C 435.179,228.337 427.179,224.504 419.5,220C 417.866,219.506 416.199,219.34 414.5,219.5C 414.46,224.193 414.127,228.859 413.5,233.5C 413.167,233.5 412.833,233.5 412.5,233.5C 413.084,228.501 413.251,223.501 413,218.5C 412.202,221.543 411.035,224.376 409.5,227C 400.589,227.181 391.755,227.681 383,228.5C 382.667,227.833 382.333,227.167 382,226.5C 381.667,228.167 381.333,229.833 381,231.5C 380.667,230.833 380.333,230.167 380,229.5C 379.8,231.32 378.966,232.653 377.5,233.5C 379.526,228.126 381.526,222.793 383.5,217.5C 388.221,212.21 386.888,209.71 379.5,210C 360.797,207.954 342.13,208.287 323.5,211C 322.584,211.278 321.918,211.778 321.5,212.5C 317.878,212.322 314.544,212.989 311.5,214.5C 306.562,215.231 301.895,216.565 297.5,218.5C 292.747,219.423 288.413,221.089 284.5,223.5C 280.122,225.186 275.788,227.186 271.5,229.5C 264.995,227.822 258.162,226.822 251,226.5C 248.619,227.435 246.119,227.768 243.5,227.5C 246.586,224.777 249.92,222.277 253.5,220C 255.608,219.64 257.608,218.973 259.5,218C 263.866,214.487 268.532,211.487 273.5,209C 288.692,202.956 304.359,198.289 320.5,195C 339.435,192.643 358.435,191.976 377.5,193C 390.181,195.669 402.848,198.336 415.5,201C 425.509,205.017 435.509,209.017 445.5,213C 453.057,218.61 461.057,223.443 469.5,227.5 Z"/></g>
<g><path style="opacity:1" fill="#8fd290" d="M 599.5,193.5 C 601.882,195.046 604.549,195.713 607.5,195.5C 604.282,197.184 601.615,196.517 599.5,193.5 Z"/></g>
<g><path style="opacity:1" fill="#7d7d84" d="M 187.5,179.5 C 187.709,180.922 188.209,182.255 189,183.5C 195,190.167 201,196.833 207,203.5C 207.617,204.449 207.451,205.282 206.5,206C 204.323,207.515 202.156,209.015 200,210.5C 193.154,203.313 186.654,195.813 180.5,188C 178.463,188.483 176.463,189.316 174.5,190.5C 177.948,185.713 182.281,182.046 187.5,179.5 Z"/></g>
<g><path style="opacity:1" fill="#84848b" d="M 523.5,196.5 C 519.868,201.467 515.868,206.133 511.5,210.5C 508.553,209.219 506.219,207.219 504.5,204.5C 507.175,200.499 510.175,196.832 513.5,193.5C 516.656,193.163 519.989,193.163 523.5,193.5C 523.5,194.5 523.5,195.5 523.5,196.5 Z"/></g>
<g><path style="opacity:1" fill="#b2b1b7" d="M 125.5,165.5 C 125.628,167.09 126.295,168.423 127.5,169.5C 130.623,170.688 133.623,172.021 136.5,173.5C 112.183,197.813 92.0164,225.147 76,255.5C 72.7329,263.039 69.7329,270.705 67,278.5C 65.8111,280.233 64.6444,281.9 63.5,283.5C 61.643,281.155 59.3096,280.822 56.5,282.5C 58.0497,274.965 60.2164,267.631 63,260.5C 77.8445,224.788 98.6779,193.122 125.5,165.5 Z"/></g>
<g><path style="opacity:1" fill="#ccd4df" d="M 381.5,184.5 C 416.894,187.713 448.56,200.046 476.5,221.5C 476.631,222.376 476.298,223.043 475.5,223.5C 472.562,222.425 469.562,222.259 466.5,223C 467.984,224.574 469.651,225.907 471.5,227C 470.906,227.464 470.239,227.631 469.5,227.5C 461.057,223.443 453.057,218.61 445.5,213C 435.509,209.017 425.509,205.017 415.5,201C 402.848,198.336 390.181,195.669 377.5,193C 358.435,191.976 339.435,192.643 320.5,195C 304.359,198.289 288.692,202.956 273.5,209C 268.532,211.487 263.866,214.487 259.5,218C 257.608,218.973 255.608,219.64 253.5,220C 249.92,222.277 246.586,224.777 243.5,227.5C 221.764,242.902 203.43,261.569 188.5,283.5C 187.848,282.275 186.681,281.608 185,281.5C 183.833,281.833 182.667,282.167 181.5,282.5C 180.917,284.002 180.084,285.335 179,286.5C 179.157,284.169 179.657,281.836 180.5,279.5C 192.27,260.059 206.937,243.059 224.5,228.5C 243.21,213.31 263.877,201.476 286.5,193C 300.066,188.278 314.066,185.444 328.5,184.5C 346.168,183.185 363.835,183.185 381.5,184.5 Z"/></g>
<g><path style="opacity:1" fill="#adaeb7" d="M 383.5,217.5 C 383.739,215.533 383.406,213.699 382.5,212C 362.145,210.011 341.812,210.177 321.5,212.5C 321.918,211.778 322.584,211.278 323.5,211C 342.13,208.287 360.797,207.954 379.5,210C 386.888,209.71 388.221,212.21 383.5,217.5 Z"/></g>
<g><path style="opacity:1" fill="#94939a" d="M 311.5,214.5 C 307.266,216.955 302.6,218.289 297.5,218.5C 301.895,216.565 306.562,215.231 311.5,214.5 Z"/></g>
<g><path style="opacity:1" fill="#676a73" d="M 556.5,210.5 C 560.628,213.29 563.628,216.957 565.5,221.5C 564.883,221.389 564.383,221.056 564,220.5C 560.895,223.293 557.728,225.96 554.5,228.5C 554.631,227.624 554.298,226.957 553.5,226.5C 550.964,226.156 548.797,225.156 547,223.5C 545.871,225.141 544.371,226.141 542.5,226.5C 546.806,222.365 551.306,218.365 556,214.5C 556.49,213.207 556.657,211.873 556.5,210.5 Z"/></g>
<g><path style="opacity:1" fill="#424857" d="M 412.5,233.5 C 412.167,238.833 411.833,244.167 411.5,249.5C 410.387,270.024 408.72,290.357 406.5,310.5C 405.833,314.833 405.167,319.167 404.5,323.5C 404.742,318.504 404.075,313.671 402.5,309C 402.833,308.667 403.167,308.333 403.5,308C 397.509,307.501 391.509,307.334 385.5,307.5C 385.666,311.846 385.499,316.179 385,320.5C 384.943,323.851 384.109,326.851 382.5,329.5C 382.334,316.986 382.667,304.486 383.5,292C 383.167,289.5 382.833,287 382.5,284.5C 381.702,284.957 381.369,285.624 381.5,286.5C 376.512,297.446 371.179,308.112 365.5,318.5C 365.003,316.403 364.67,314.57 364.5,313C 366.017,311.221 366.851,311.721 367,314.5C 368.595,312.575 368.762,310.575 367.5,308.5C 361.202,307.504 354.868,307.17 348.5,307.5C 348.762,306.022 348.429,304.689 347.5,303.5C 346.85,305.184 345.85,306.517 344.5,307.5C 348.173,298.823 351.839,290.157 355.5,281.5C 360.602,271.869 364.936,261.869 368.5,251.5C 371.116,245.325 374.116,239.325 377.5,233.5C 378.966,232.653 379.8,231.32 380,229.5C 380.333,230.167 380.667,230.833 381,231.5C 381.333,229.833 381.667,228.167 382,226.5C 382.333,227.167 382.667,227.833 383,228.5C 391.755,227.681 400.589,227.181 409.5,227C 411.035,224.376 412.202,221.543 413,218.5C 413.251,223.501 413.084,228.501 412.5,233.5 Z"/></g>
<g><path style="opacity:1" fill="#97959e" d="M 297.5,218.5 C 297.389,219.117 297.056,219.617 296.5,220C 292.418,221.184 288.418,222.351 284.5,223.5C 288.413,221.089 292.747,219.423 297.5,218.5 Z"/></g>
<g><path style="opacity:1" fill="#ccd6e3" d="M 383.5,217.5 C 381.526,222.793 379.526,228.126 377.5,233.5C 374.116,239.325 371.116,245.325 368.5,251.5C 367.778,251.918 367.278,252.584 367,253.5C 366.833,252.667 366.667,251.833 366.5,251C 367.378,249.2 368.045,247.367 368.5,245.5C 329.499,245.333 290.499,245.5 251.5,246C 249.141,247.358 246.807,248.358 244.5,249C 245.381,248.292 246.047,247.458 246.5,246.5C 248.163,244.467 250.163,242.634 252.5,241C 258.529,236.653 264.862,232.82 271.5,229.5C 275.788,227.186 280.122,225.186 284.5,223.5C 288.418,222.351 292.418,221.184 296.5,220C 297.056,219.617 297.389,219.117 297.5,218.5C 302.6,218.289 307.266,216.955 311.5,214.5C 314.544,212.989 317.878,212.322 321.5,212.5C 341.812,210.177 362.145,210.011 382.5,212C 383.406,213.699 383.739,215.533 383.5,217.5 Z"/></g>
<g><path style="opacity:1" fill="#424857" d="M 145.5,221.5 C 146.552,221.351 147.552,221.517 148.5,222C 156.011,228.18 163.511,234.347 171,240.5C 173.198,238.635 175.032,236.469 176.5,234C 175.35,232.019 174.016,230.186 172.5,228.5C 172.369,227.624 172.702,226.957 173.5,226.5C 190.167,227.833 206.833,227.833 223.5,226.5C 224.298,226.957 224.631,227.624 224.5,228.5C 206.937,243.059 192.27,260.059 180.5,279.5C 177.863,282.989 175.363,286.655 173,290.5C 170.111,296.934 167.278,303.267 164.5,309.5C 164.34,305.764 163.507,305.764 162,309.5C 157.923,308.202 153.589,307.536 149,307.5C 144.833,307.833 140.667,308.167 136.5,308.5C 135.982,310.9 134.815,312.9 133,314.5C 130.534,313.212 128.034,313.212 125.5,314.5C 117.449,308.753 108.783,307.087 99.5,309.5C 99.3379,307.473 99.5045,305.473 100,303.5C 100.383,302.944 100.883,302.611 101.5,302.5C 111.736,306.246 122.069,309.579 132.5,312.5C 132.462,309.819 133.129,307.319 134.5,305C 134.241,303.739 133.574,302.739 132.5,302C 124.324,299.039 115.991,296.539 107.5,294.5C 106.37,291.803 106.37,289.137 107.5,286.5C 107.343,285.127 107.51,283.793 108,282.5C 111.423,276.593 114.589,270.593 117.5,264.5C 119.104,263.713 119.771,262.38 119.5,260.5C 120.873,260.343 122.207,260.51 123.5,261C 131.07,265.615 138.737,269.949 146.5,274C 147.635,274.749 148.635,274.583 149.5,273.5C 150.963,271.271 151.797,268.937 152,266.5C 146.012,262.846 140.179,259.012 134.5,255C 130.41,254.47 127.743,252.303 126.5,248.5C 131.674,238.664 138.007,229.664 145.5,221.5 Z"/></g>
<g><path style="opacity:1" fill="#414757" d="M 271.5,229.5 C 264.862,232.82 258.529,236.653 252.5,241C 250.163,242.634 248.163,244.467 246.5,246.5C 243.9,247.919 241.4,249.585 239,251.5C 238.251,252.635 238.417,253.635 239.5,254.5C 253.928,264.942 268.595,274.942 283.5,284.5C 296.989,294.744 310.656,304.744 324.5,314.5C 322.459,314.146 320.626,314.146 319,314.5C 316.456,310.879 313.289,308.713 309.5,308C 288.169,307.5 266.836,307.333 245.5,307.5C 245.5,308.5 245.5,309.5 245.5,310.5C 236.555,298.381 227.389,286.381 218,274.5C 214.034,278.136 210.368,282.136 207,286.5C 202.104,293.527 197.937,300.861 194.5,308.5C 194.719,307.325 194.386,306.325 193.5,305.5C 188.063,307.394 182.396,308.394 176.5,308.5C 176.771,310.38 176.104,311.713 174.5,312.5C 179.013,302.852 183.68,293.185 188.5,283.5C 203.43,261.569 221.764,242.902 243.5,227.5C 246.119,227.768 248.619,227.435 251,226.5C 258.162,226.822 264.995,227.822 271.5,229.5 Z"/></g>
<g><path style="opacity:1" fill="#434857" d="M 470.5,229.5 C 499.209,250.193 520.876,276.527 535.5,308.5C 536.301,310.042 536.634,311.708 536.5,313.5C 533.235,312.744 531.901,310.911 532.5,308C 528.789,307.175 525.122,307.341 521.5,308.5C 521.291,309.086 520.957,309.586 520.5,310C 521.54,313.4 522.206,316.9 522.5,320.5C 520.378,314.049 517.378,308.049 513.5,302.5C 505.257,286.694 494.59,272.694 481.5,260.5C 469.949,249.271 457.282,239.604 443.5,231.5C 443.649,230.448 443.483,229.448 443,228.5C 441.16,229.833 440.66,229.666 441.5,228C 449.079,227.816 456.579,227.316 464,226.5C 465.843,228.171 468.009,229.171 470.5,229.5 Z"/></g>
<g><path style="opacity:1" fill="#424857" d="M 565.5,221.5 C 570.554,227.247 575.387,233.247 580,239.5C 581.761,242.411 583.261,245.411 584.5,248.5C 584.489,250.017 583.823,251.184 582.5,252C 574.135,256.511 566.135,261.511 558.5,267C 560.06,269.289 561.227,271.789 562,274.5C 562.718,275.451 563.551,275.617 564.5,275C 572.679,268.302 581.679,263.136 591.5,259.5C 594.735,264.53 597.401,269.864 599.5,275.5C 599.755,277.967 600.755,279.967 602.5,281.5C 604.023,284.345 605.023,287.345 605.5,290.5C 605.461,291.583 605.127,292.583 604.5,293.5C 595.735,296.192 587.069,299.192 578.5,302.5C 577.778,305.457 577.945,308.457 579,311.5C 580.776,312.536 582.609,312.536 584.5,311.5C 582.989,313.441 580.989,313.941 578.5,313C 577.62,311.644 577.286,310.144 577.5,308.5C 568.535,307.419 559.535,307.252 550.5,308C 549.027,308.71 548.36,309.876 548.5,311.5C 546.022,306.06 543.355,300.726 540.5,295.5C 527.759,270.728 510.759,249.061 489.5,230.5C 488.71,229.206 487.71,228.039 486.5,227C 503.927,227.141 521.26,227.641 538.5,228.5C 537.06,230.388 535.394,232.055 533.5,233.5C 535.605,236.027 537.939,238.36 540.5,240.5C 545.238,236.482 549.905,232.482 554.5,228.5C 557.728,225.96 560.895,223.293 564,220.5C 564.383,221.056 564.883,221.389 565.5,221.5 Z"/></g>
<g><path style="opacity:1" fill="#757880" d="M 154.5,210.5 C 154.586,211.496 154.252,212.329 153.5,213C 159.497,218.654 165.83,223.82 172.5,228.5C 174.016,230.186 175.35,232.019 176.5,234C 175.032,236.469 173.198,238.635 171,240.5C 163.511,234.347 156.011,228.18 148.5,222C 147.552,221.517 146.552,221.351 145.5,221.5C 148.152,217.518 151.152,213.851 154.5,210.5 Z"/></g>
<g><path style="opacity:1" fill="#81828b" d="M 554.5,228.5 C 549.905,232.482 545.238,236.482 540.5,240.5C 537.939,238.36 535.605,236.027 533.5,233.5C 535.394,232.055 537.06,230.388 538.5,228.5C 539.833,227.833 541.167,227.167 542.5,226.5C 544.371,226.141 545.871,225.141 547,223.5C 548.797,225.156 550.964,226.156 553.5,226.5C 554.298,226.957 554.631,227.624 554.5,228.5 Z"/></g>
<g><path style="opacity:1" fill="#c8d3e1" d="M 443.5,231.5 C 457.282,239.604 469.949,249.271 481.5,260.5C 482.028,261.847 482.195,263.181 482,264.5C 459.042,264.479 435.875,264.479 412.5,264.5C 412.549,257.151 412.882,249.817 413.5,242.5C 413.5,239.5 413.5,236.5 413.5,233.5C 414.127,228.859 414.46,224.193 414.5,219.5C 416.199,219.34 417.866,219.506 419.5,220C 427.179,224.504 435.179,228.337 443.5,231.5 Z"/></g>
<g><path style="opacity:1" fill="#7f808b" d="M 412.5,233.5 C 412.833,233.5 413.167,233.5 413.5,233.5C 413.5,236.5 413.5,239.5 413.5,242.5C 412.833,244.833 412.167,247.167 411.5,249.5C 411.833,244.167 412.167,238.833 412.5,233.5 Z"/></g>
<g><path style="opacity:1" fill="#c5d0df" d="M 368.5,251.5 C 364.936,261.869 360.602,271.869 355.5,281.5C 354.25,281.577 353.417,282.244 353,283.5C 341.725,282.178 330.225,281.511 318.5,281.5C 307.167,281.833 295.833,282.167 284.5,282.5C 285.981,283.944 285.648,284.611 283.5,284.5C 268.595,274.942 253.928,264.942 239.5,254.5C 238.417,253.635 238.251,252.635 239,251.5C 241.4,249.585 243.9,247.919 246.5,246.5C 246.047,247.458 245.381,248.292 244.5,249C 246.807,248.358 249.141,247.358 251.5,246C 290.499,245.5 329.499,245.333 368.5,245.5C 368.045,247.367 367.378,249.2 366.5,251C 366.667,251.833 366.833,252.667 367,253.5C 367.278,252.584 367.778,251.918 368.5,251.5 Z"/></g>
<g><path style="opacity:1" fill="#6e727d" d="M 126.5,248.5 C 127.743,252.303 130.41,254.47 134.5,255C 140.179,259.012 146.012,262.846 152,266.5C 151.797,268.937 150.963,271.271 149.5,273.5C 148.635,274.583 147.635,274.749 146.5,274C 138.737,269.949 131.07,265.615 123.5,261C 122.207,260.51 120.873,260.343 119.5,260.5C 119.771,262.38 119.104,263.713 117.5,264.5C 119.476,258.543 122.476,253.21 126.5,248.5 Z"/></g>
<g><path style="opacity:1" fill="#727681" d="M 584.5,248.5 C 588.014,251.361 590.347,255.027 591.5,259.5C 581.679,263.136 572.679,268.302 564.5,275C 563.551,275.617 562.718,275.451 562,274.5C 561.227,271.789 560.06,269.289 558.5,267C 566.135,261.511 574.135,256.511 582.5,252C 583.823,251.184 584.489,250.017 584.5,248.5 Z"/></g>
<g><path style="opacity:1" fill="#90949d" d="M 599.5,275.5 C 601.245,277.033 602.245,279.033 602.5,281.5C 600.755,279.967 599.755,277.967 599.5,275.5 Z"/></g>
<g><path style="opacity:1" fill="#b6c1d2" d="M 180.5,279.5 C 179.657,281.836 179.157,284.169 179,286.5C 180.084,285.335 180.917,284.002 181.5,282.5C 182.667,282.167 183.833,281.833 185,281.5C 186.681,281.608 187.848,282.275 188.5,283.5C 183.68,293.185 179.013,302.852 174.5,312.5C 172.998,315.505 171.498,318.505 170,321.5C 167.705,330.368 165.205,339.035 162.5,347.5C 162.228,343.098 162.561,338.765 163.5,334.5C 161.955,333.548 160.288,333.215 158.5,333.5C 159.084,336.285 158.084,337.952 155.5,338.5C 157.431,328.425 160.431,318.758 164.5,309.5C 167.278,303.267 170.111,296.934 173,290.5C 175.363,286.655 177.863,282.989 180.5,279.5 Z"/></g>
<g><path style="opacity:1" fill="#bcc9d9" d="M 355.5,281.5 C 351.839,290.157 348.173,298.823 344.5,307.5C 343.939,311.233 342.273,314.4 339.5,317C 338.767,318.766 338.433,320.599 338.5,322.5C 337.07,322.579 335.736,322.246 334.5,321.5C 331.149,319.141 327.815,316.808 324.5,314.5C 310.656,304.744 296.989,294.744 283.5,284.5C 285.648,284.611 285.981,283.944 284.5,282.5C 295.833,282.167 307.167,281.833 318.5,281.5C 330.225,281.511 341.725,282.178 353,283.5C 353.417,282.244 354.25,281.577 355.5,281.5 Z"/></g>
<g><path style="opacity:1" fill="#becbdc" d="M 413.5,242.5 C 412.882,249.817 412.549,257.151 412.5,264.5C 435.875,264.479 459.042,264.479 482,264.5C 482.195,263.181 482.028,261.847 481.5,260.5C 494.59,272.694 505.257,286.694 513.5,302.5C 514.675,306.516 516.341,310.349 518.5,314C 518.095,314.945 517.428,315.612 516.5,316C 480.502,316.5 444.502,316.667 408.5,316.5C 407.911,321.481 407.411,326.481 407,331.5C 406.5,324.508 406.334,317.508 406.5,310.5C 408.72,290.357 410.387,270.024 411.5,249.5C 412.167,247.167 412.833,244.833 413.5,242.5 Z"/></g>
<g><path style="opacity:1" fill="#c0cad9" d="M 476.5,221.5 C 480.576,224.915 484.909,227.915 489.5,230.5C 510.759,249.061 527.759,270.728 540.5,295.5C 542.184,300.048 543.35,304.715 544,309.5C 543.161,308.376 541.994,307.709 540.5,307.5C 538.793,307.728 537.126,308.062 535.5,308.5C 520.876,276.527 499.209,250.193 470.5,229.5C 470.167,228.833 469.833,228.167 469.5,227.5C 470.239,227.631 470.906,227.464 471.5,227C 469.651,225.907 467.984,224.574 466.5,223C 469.562,222.259 472.562,222.425 475.5,223.5C 476.298,223.043 476.631,222.376 476.5,221.5 Z"/></g>
<g><path style="opacity:1" fill="#676d7b" d="M 107.5,286.5 C 106.37,289.137 106.37,291.803 107.5,294.5C 115.991,296.539 124.324,299.039 132.5,302C 133.574,302.739 134.241,303.739 134.5,305C 133.129,307.319 132.462,309.819 132.5,312.5C 122.069,309.579 111.736,306.246 101.5,302.5C 101.511,300.453 101.844,298.453 102.5,296.5C 103.876,292.885 105.543,289.551 107.5,286.5 Z"/></g>
<g><path style="opacity:1" fill="#6c7280" d="M 605.5,290.5 C 608.312,293.912 609.978,297.912 610.5,302.5C 609.85,302.196 609.183,301.863 608.5,301.5C 600.478,304.836 592.478,308.169 584.5,311.5C 582.609,312.536 580.776,312.536 579,311.5C 577.945,308.457 577.778,305.457 578.5,302.5C 587.069,299.192 595.735,296.192 604.5,293.5C 605.127,292.583 605.461,291.583 605.5,290.5 Z"/></g>
<g><path style="opacity:1" fill="#3b455a" d="M 164.5,309.5 C 160.431,318.758 157.431,328.425 155.5,338.5C 151.991,346.019 150.325,354.019 150.5,362.5C 149.691,364.028 149.024,365.694 148.5,367.5C 146.554,372.396 145.887,377.729 146.5,383.5C 137.833,383.5 129.167,383.5 120.5,383.5C 120.793,387.437 120.46,391.27 119.5,395C 109.172,395.5 98.8387,395.666 88.5,395.5C 88.5,400.167 88.5,404.833 88.5,409.5C 88.1667,409.5 87.8333,409.5 87.5,409.5C 87.5,404.5 87.5,399.5 87.5,394.5C 97.8333,394.5 108.167,394.5 118.5,394.5C 118.5,391.167 118.5,387.833 118.5,384.5C 108.167,384.5 97.8333,384.5 87.5,384.5C 87.5,378.833 87.5,373.167 87.5,367.5C 87.5,367.167 87.5,366.833 87.5,366.5C 88.9715,362.081 89.6382,357.414 89.5,352.5C 89.5,351.167 89.5,349.833 89.5,348.5C 100.432,350.243 111.432,351.91 122.5,353.5C 123.244,349.881 123.577,346.215 123.5,342.5C 117.604,341.506 111.604,340.673 105.5,340C 101.518,338.459 97.5181,337.292 93.5,336.5C 93.7038,333.482 94.0371,330.482 94.5,327.5C 95.3899,321.179 97.0566,315.179 99.5,309.5C 108.783,307.087 117.449,308.753 125.5,314.5C 128.034,313.212 130.534,313.212 133,314.5C 134.815,312.9 135.982,310.9 136.5,308.5C 140.667,308.167 144.833,307.833 149,307.5C 153.589,307.536 157.923,308.202 162,309.5C 163.507,305.764 164.34,305.764 164.5,309.5 Z"/></g>
<g><path style="opacity:1" fill="#3c465a" d="M 194.5,308.5 C 192.063,312.948 189.896,317.615 188,322.5C 187.023,324.74 186.523,327.073 186.5,329.5C 184.747,332.56 183.413,335.893 182.5,339.5C 181.712,342.887 180.712,346.22 179.5,349.5C 180.005,346.159 180.172,342.826 180,339.5C 175.018,355.061 172.518,371.061 172.5,387.5C 169.167,387.5 165.833,387.5 162.5,387.5C 162.649,386.448 162.483,385.448 162,384.5C 161.667,384.833 161.333,385.167 161,385.5C 160.5,394.16 160.334,402.827 160.5,411.5C 159.339,396.339 159.172,381.006 160,365.5C 161.314,361.246 162.147,356.913 162.5,352.5C 162.5,350.833 162.5,349.167 162.5,347.5C 165.205,339.035 167.705,330.368 170,321.5C 171.498,318.505 172.998,315.505 174.5,312.5C 176.104,311.713 176.771,310.38 176.5,308.5C 182.396,308.394 188.063,307.394 193.5,305.5C 194.386,306.325 194.719,307.325 194.5,308.5 Z"/></g>
<g><path style="opacity:1" fill="#3c465a" d="M 365.5,318.5 C 363.633,322.769 361.966,327.103 360.5,331.5C 367.17,332.981 373.837,334.648 380.5,336.5C 380.5,334.5 380.5,332.5 380.5,330.5C 381.167,330.167 381.833,329.833 382.5,329.5C 384.109,326.851 384.943,323.851 385,320.5C 385.499,316.179 385.666,311.846 385.5,307.5C 391.509,307.334 397.509,307.501 403.5,308C 403.167,308.333 402.833,308.667 402.5,309C 404.075,313.671 404.742,318.504 404.5,323.5C 404.5,328.833 404.5,334.167 404.5,339.5C 409.032,339.818 413.366,339.485 417.5,338.5C 423.509,338.666 429.509,338.499 435.5,338C 445.808,336.925 455.808,335.425 465.5,333.5C 485.137,331.114 504.803,329.114 524.5,327.5C 524.279,324.933 523.612,322.599 522.5,320.5C 522.206,316.9 521.54,313.4 520.5,310C 520.957,309.586 521.291,309.086 521.5,308.5C 525.122,307.341 528.789,307.175 532.5,308C 531.901,310.911 533.235,312.744 536.5,313.5C 538.04,315.729 539.54,318.062 541,320.5C 541.813,326.938 543.813,332.938 547,338.5C 547.266,343.069 548.266,347.403 550,351.5C 550.757,357.149 551.257,362.816 551.5,368.5C 552.575,378.994 552.575,389.327 551.5,399.5C 551.389,388.778 550.556,378.111 549,367.5C 548.501,372.823 548.334,378.156 548.5,383.5C 545.5,383.5 542.5,383.5 539.5,383.5C 539.515,379.44 539.015,375.44 538,371.5C 537.749,373.433 537.249,375.266 536.5,377C 537.645,383.752 537.811,390.586 537,397.5C 536.617,398.056 536.117,398.389 535.5,398.5C 535.667,387.162 535.5,375.828 535,364.5C 534.802,362.618 534.302,360.952 533.5,359.5C 533.5,358.167 533.5,356.833 533.5,355.5C 532.127,355.343 530.793,355.51 529.5,356C 507.774,366.074 486.107,376.24 464.5,386.5C 464.5,385.5 464.5,384.5 464.5,383.5C 450.496,383.667 436.496,383.5 422.5,383C 423.566,381.841 423.233,381.008 421.5,380.5C 423.794,378.22 426.461,376.386 429.5,375C 439.268,370.523 448.935,365.856 458.5,361C 449.059,360.34 439.726,360.84 430.5,362.5C 423.167,362.5 415.833,362.5 408.5,362.5C 408.564,366.22 409.064,369.886 410,373.5C 410.383,374.056 410.883,374.389 411.5,374.5C 411.517,376.565 411.85,378.565 412.5,380.5C 411.005,380.415 410.005,381.081 409.5,382.5C 396.333,382.833 383.167,383.167 370,383.5C 356.444,383.491 343.111,382.824 330,381.5C 328.815,383.377 327.815,385.377 327,387.5C 326.329,388.252 325.496,388.586 324.5,388.5C 328.459,383.332 328.459,378.165 324.5,373C 319.223,369.321 314.723,370.155 311,375.5C 310.322,379.221 310.489,382.888 311.5,386.5C 310.069,385.097 308.902,383.431 308,381.5C 302.41,382.809 296.577,383.475 290.5,383.5C 284.833,383.333 279.167,383.167 273.5,383C 275.396,381.935 275.563,381.102 274,380.5C 271.846,381.274 269.679,381.941 267.5,382.5C 274.076,378.799 280.909,375.466 288,372.5C 288.667,371.5 288.667,370.5 288,369.5C 285.147,365.765 282.313,362.098 279.5,358.5C 273.553,348.927 266.886,339.927 259.5,331.5C 254.859,324.518 250.193,317.518 245.5,310.5C 245.5,309.5 245.5,308.5 245.5,307.5C 266.836,307.333 288.169,307.5 309.5,308C 313.289,308.713 316.456,310.879 319,314.5C 320.626,314.146 322.459,314.146 324.5,314.5C 327.815,316.808 331.149,319.141 334.5,321.5C 335.736,322.246 337.07,322.579 338.5,322.5C 338.433,320.599 338.767,318.766 339.5,317C 342.273,314.4 343.939,311.233 344.5,307.5C 345.85,306.517 346.85,305.184 347.5,303.5C 348.429,304.689 348.762,306.022 348.5,307.5C 354.868,307.17 361.202,307.504 367.5,308.5C 368.762,310.575 368.595,312.575 367,314.5C 366.851,311.721 366.017,311.221 364.5,313C 364.67,314.57 365.003,316.403 365.5,318.5 Z"/></g>
<g><path style="opacity:1" fill="#3c465a" d="M 610.5,302.5 C 613.945,312.611 616.611,322.945 618.5,333.5C 618.859,335.766 618.192,337.599 616.5,339C 607.181,340.132 597.848,341.132 588.5,342C 587.734,345.418 587.734,348.918 588.5,352.5C 599.561,351.208 610.561,349.542 621.5,347.5C 623.022,353.047 623.688,358.714 623.5,364.5C 623.5,370.167 623.5,375.833 623.5,381.5C 604.487,381.876 585.487,382.543 566.5,383.5C 565.145,373.872 563.978,364.205 563,354.5C 562.667,354.167 562.333,353.833 562,353.5C 561.503,356.146 561.336,358.813 561.5,361.5C 560.833,358.833 560.167,356.167 559.5,353.5C 557.401,339.104 553.734,325.104 548.5,311.5C 548.36,309.876 549.027,308.71 550.5,308C 559.535,307.252 568.535,307.419 577.5,308.5C 577.286,310.144 577.62,311.644 578.5,313C 580.989,313.941 582.989,313.441 584.5,311.5C 592.478,308.169 600.478,304.836 608.5,301.5C 609.183,301.863 609.85,302.196 610.5,302.5 Z"/></g>
<g><path style="opacity:1" fill="#b5c3d6" d="M 513.5,302.5 C 517.378,308.049 520.378,314.049 522.5,320.5C 523.612,322.599 524.279,324.933 524.5,327.5C 504.803,329.114 485.137,331.114 465.5,333.5C 449.281,334.462 433.281,336.128 417.5,338.5C 413.366,339.485 409.032,339.818 404.5,339.5C 404.5,334.167 404.5,328.833 404.5,323.5C 405.167,319.167 405.833,314.833 406.5,310.5C 406.334,317.508 406.5,324.508 407,331.5C 407.411,326.481 407.911,321.481 408.5,316.5C 444.502,316.667 480.502,316.5 516.5,316C 517.428,315.612 518.095,314.945 518.5,314C 516.341,310.349 514.675,306.516 513.5,302.5 Z"/></g>
<g><path style="opacity:1" fill="#b8c5d7" d="M 245.5,310.5 C 250.193,317.518 254.859,324.518 259.5,331.5C 259.649,332.552 259.483,333.552 259,334.5C 235.239,333.34 211.406,333.173 187.5,334C 187,334.5 186.5,335 186,335.5C 185.51,333.455 185.677,331.455 186.5,329.5C 186.523,327.073 187.023,324.74 188,322.5C 189.896,317.615 192.063,312.948 194.5,308.5C 197.937,300.861 202.104,293.527 207,286.5C 210.368,282.136 214.034,278.136 218,274.5C 227.389,286.381 236.555,298.381 245.5,310.5 Z"/></g>
<g><path style="opacity:1" fill="#b5c1d3" d="M 381.5,286.5 C 382.152,287.449 382.486,288.615 382.5,290C 381.57,303.485 380.903,316.985 380.5,330.5C 380.5,332.5 380.5,334.5 380.5,336.5C 373.837,334.648 367.17,332.981 360.5,331.5C 361.966,327.103 363.633,322.769 365.5,318.5C 371.179,308.112 376.512,297.446 381.5,286.5 Z"/></g>
<g><path style="opacity:1" fill="#abb0bc" d="M 63.5,283.5 C 54.085,309.081 47.7517,335.415 44.5,362.5C 43.6909,364.292 43.1909,366.292 43,368.5C 42.5002,378.494 42.3335,388.494 42.5,398.5C 41.5,398.5 40.5,398.5 39.5,398.5C 39.3334,383.163 39.5001,367.83 40,352.5C 41.9991,339.843 43.9991,327.177 46,314.5C 49.0472,305.349 51.7139,296.015 54,286.5C 54.9344,285.142 55.7677,283.808 56.5,282.5C 59.3096,280.822 61.643,281.155 63.5,283.5 Z"/></g>
<g><path style="opacity:1" fill="#5c6272" d="M 382.5,329.5 C 381.833,329.833 381.167,330.167 380.5,330.5C 380.903,316.985 381.57,303.485 382.5,290C 382.486,288.615 382.152,287.449 381.5,286.5C 381.369,285.624 381.702,284.957 382.5,284.5C 382.833,287 383.167,289.5 383.5,292C 382.667,304.486 382.334,316.986 382.5,329.5 Z"/></g>
<g><path style="opacity:1" fill="#b2bfd2" d="M 278.5,313.5 C 292.443,322.479 306.443,331.479 320.5,340.5C 321.833,341.5 321.833,342.5 320.5,343.5C 316.5,346.833 312.833,350.5 309.5,354.5C 308.5,355.833 307.5,355.833 306.5,354.5C 297.394,340.602 288.061,326.936 278.5,313.5 Z"/></g>
<g><path style="opacity:1" fill="#6d7485" d="M 465.5,333.5 C 455.808,335.425 445.808,336.925 435.5,338C 429.509,338.499 423.509,338.666 417.5,338.5C 433.281,336.128 449.281,334.462 465.5,333.5 Z"/></g>
<g><path style="opacity:1" fill="#acb9cd" d="M 356.5,342.5 C 366.966,342.11 370.8,346.776 368,356.5C 361.405,363.605 355.738,362.939 351,354.5C 349.873,349.089 351.707,345.089 356.5,342.5 Z"/></g>
<g><path style="opacity:1" fill="#656e7e" d="M 618.5,333.5 C 620.755,337.766 621.755,342.432 621.5,347.5C 610.561,349.542 599.561,351.208 588.5,352.5C 587.734,348.918 587.734,345.418 588.5,342C 597.848,341.132 607.181,340.132 616.5,339C 618.192,337.599 618.859,335.766 618.5,333.5 Z"/></g>
<g><path style="opacity:1" fill="#656e7e" d="M 94.5,327.5 C 94.0371,330.482 93.7038,333.482 93.5,336.5C 97.5181,337.292 101.518,338.459 105.5,340C 111.604,340.673 117.604,341.506 123.5,342.5C 123.577,346.215 123.244,349.881 122.5,353.5C 111.432,351.91 100.432,350.243 89.5,348.5C 90.0426,341.119 91.7092,334.119 94.5,327.5 Z"/></g>
<g><path style="opacity:1" fill="#b0c0d5" d="M 186.5,329.5 C 185.677,331.455 185.51,333.455 186,335.5C 186.5,335 187,334.5 187.5,334C 211.406,333.173 235.239,333.34 259,334.5C 259.483,333.552 259.649,332.552 259.5,331.5C 266.886,339.927 273.553,348.927 279.5,358.5C 280.218,360.137 280.384,361.803 280,363.5C 279.667,362.833 279.333,362.167 279,361.5C 246.24,362.496 213.407,362.829 180.5,362.5C 180.162,366.273 179.496,369.273 178.5,371.5C 177.928,364.254 178.928,357.254 181.5,350.5C 182.246,346.868 182.579,343.202 182.5,339.5C 183.413,335.893 184.747,332.56 186.5,329.5 Z"/></g>
<g><path style="opacity:1" fill="#a9bad1" d="M 279.5,358.5 C 282.313,362.098 285.147,365.765 288,369.5C 288.667,370.5 288.667,371.5 288,372.5C 280.909,375.466 274.076,378.799 267.5,382.5C 243.1,393.032 218.767,403.865 194.5,415C 190.745,417.294 186.912,419.461 183,421.5C 181.422,422.547 179.922,422.547 178.5,421.5C 177.593,418.579 177.26,415.579 177.5,412.5C 176.564,399.511 176.397,386.511 177,373.5C 177.278,372.584 177.778,371.918 178.5,371.5C 179.496,369.273 180.162,366.273 180.5,362.5C 213.407,362.829 246.24,362.496 279,361.5C 279.333,362.167 279.667,362.833 280,363.5C 280.384,361.803 280.218,360.137 279.5,358.5 Z"/></g>
<g><path style="opacity:1" fill="#aebdd1" d="M 540.5,295.5 C 543.355,300.726 546.022,306.06 548.5,311.5C 553.734,325.104 557.401,339.104 559.5,353.5C 561.154,369.113 561.821,384.779 561.5,400.5C 561.5,402.167 561.5,403.833 561.5,405.5C 560.649,399.66 559.982,393.66 559.5,387.5C 558.167,387.5 556.833,387.5 555.5,387.5C 555.663,389.857 555.497,392.19 555,394.5C 554.829,386.656 554.329,378.989 553.5,371.5C 552.833,370.5 552.167,369.5 551.5,368.5C 551.257,362.816 550.757,357.149 550,351.5C 548.266,347.403 547.266,343.069 547,338.5C 543.813,332.938 541.813,326.938 541,320.5C 539.54,318.062 538.04,315.729 536.5,313.5C 536.634,311.708 536.301,310.042 535.5,308.5C 537.126,308.062 538.793,307.728 540.5,307.5C 541.994,307.709 543.161,308.376 544,309.5C 543.35,304.715 542.184,300.048 540.5,295.5 Z"/></g>
<g><path style="opacity:1" fill="#7b8395" d="M 430.5,362.5 C 423.647,363.275 416.647,363.942 409.5,364.5C 410.04,367.865 410.706,371.198 411.5,374.5C 410.883,374.389 410.383,374.056 410,373.5C 409.064,369.886 408.564,366.22 408.5,362.5C 415.833,362.5 423.167,362.5 430.5,362.5 Z"/></g>
<g><path style="opacity:1" fill="#868c99" d="M 89.5,352.5 C 89.6382,357.414 88.9715,362.081 87.5,366.5C 87.2291,361.566 87.8958,356.9 89.5,352.5 Z"/></g>
<g><path style="opacity:1" fill="#aabacf" d="M 421.5,380.5 C 418.91,380.396 416.577,381.063 414.5,382.5C 413.287,382.253 412.62,381.586 412.5,380.5C 411.85,378.565 411.517,376.565 411.5,374.5C 410.706,371.198 410.04,367.865 409.5,364.5C 416.647,363.942 423.647,363.275 430.5,362.5C 439.726,360.84 449.059,360.34 458.5,361C 448.935,365.856 439.268,370.523 429.5,375C 426.461,376.386 423.794,378.22 421.5,380.5 Z"/></g>
<g><path style="opacity:1" fill="#858fa3" d="M 559.5,353.5 C 560.167,356.167 560.833,358.833 561.5,361.5C 562.449,366.74 562.782,372.073 562.5,377.5C 562.825,385.352 562.492,393.018 561.5,400.5C 561.821,384.779 561.154,369.113 559.5,353.5 Z"/></g>
<g><path style="opacity:1" fill="#a8b8ce" d="M 324.5,388.5 C 319.785,390.103 315.451,389.436 311.5,386.5C 310.489,382.888 310.322,379.221 311,375.5C 314.723,370.155 319.223,369.321 324.5,373C 328.459,378.165 328.459,383.332 324.5,388.5 Z"/></g>
<g><path style="opacity:1" fill="#37445c" d="M 179.5,349.5 C 175.002,370.432 174.335,391.432 177.5,412.5C 177.26,415.579 177.593,418.579 178.5,421.5C 179.922,422.547 181.422,422.547 183,421.5C 186.912,419.461 190.745,417.294 194.5,415C 218.767,403.865 243.1,393.032 267.5,382.5C 269.679,381.941 271.846,381.274 274,380.5C 275.563,381.102 275.396,381.935 273.5,383C 279.167,383.167 284.833,383.333 290.5,383.5C 296.577,383.475 302.41,382.809 308,381.5C 308.902,383.431 310.069,385.097 311.5,386.5C 315.451,389.436 319.785,390.103 324.5,388.5C 325.496,388.586 326.329,388.252 327,387.5C 327.815,385.377 328.815,383.377 330,381.5C 343.111,382.824 356.444,383.491 370,383.5C 383.167,383.167 396.333,382.833 409.5,382.5C 410.005,381.081 411.005,380.415 412.5,380.5C 412.62,381.586 413.287,382.253 414.5,382.5C 416.577,381.063 418.91,380.396 421.5,380.5C 423.233,381.008 423.566,381.841 422.5,383C 436.496,383.5 450.496,383.667 464.5,383.5C 464.5,384.5 464.5,385.5 464.5,386.5C 452.269,390.958 440.602,396.458 429.5,403C 427.564,403.813 425.564,404.313 423.5,404.5C 423.253,406.858 423.919,408.858 425.5,410.5C 432.858,420.851 440.192,431.185 447.5,441.5C 443.427,439.735 440.427,436.402 438.5,431.5C 430.493,431.334 422.493,431.5 414.5,432C 415.413,433.414 415.413,434.914 414.5,436.5C 410.857,431.852 407.19,427.185 403.5,422.5C 399.182,426.318 395.015,430.318 391,434.5C 390.387,436.495 390.887,438.162 392.5,439.5C 391.033,441.843 389.699,441.51 388.5,438.5C 389.331,436.396 389.664,434.396 389.5,432.5C 379.94,431.821 370.44,431.155 361,430.5C 360.617,431.056 360.117,431.389 359.5,431.5C 362.381,423.262 359.548,418.262 351,416.5C 342.233,419.029 339.733,424.363 343.5,432.5C 342.518,431.859 341.518,431.193 340.5,430.5C 311.541,431.163 282.541,431.496 253.5,431.5C 223.51,431.48 194.01,430.814 165,429.5C 164.51,430.793 164.343,432.127 164.5,433.5C 162.849,426.339 161.515,419.005 160.5,411.5C 160.334,402.827 160.5,394.16 161,385.5C 161.333,385.167 161.667,384.833 162,384.5C 162.483,385.448 162.649,386.448 162.5,387.5C 165.833,387.5 169.167,387.5 172.5,387.5C 172.518,371.061 175.018,355.061 180,339.5C 180.172,342.826 180.005,346.159 179.5,349.5 Z"/></g>
<g><path style="opacity:1" fill="#cfd4dc" d="M 44.5,362.5 C 44.021,374.663 43.3543,386.663 42.5,398.5C 42.3335,388.494 42.5002,378.494 43,368.5C 43.1909,366.292 43.6909,364.292 44.5,362.5 Z"/></g>
<g><path style="opacity:1" fill="#37445d" d="M 148.5,367.5 C 148.171,381.344 148.504,395.01 149.5,408.5C 149.833,408.5 150.167,408.5 150.5,408.5C 150.392,413.87 150.725,419.203 151.5,424.5C 149.234,426.193 148.9,428.36 150.5,431C 142.147,431.168 133.813,431.668 125.5,432.5C 124.478,435.987 122.145,437.32 118.5,436.5C 118.489,434.983 117.823,433.816 116.5,433C 114.382,432.74 112.716,431.74 111.5,430C 105.815,429.373 100.149,429.54 94.5,430.5C 92.5453,430.276 90.8787,429.609 89.5,428.5C 89.5,427.833 89.5,427.167 89.5,426.5C 89.0932,420.839 88.7599,415.172 88.5,409.5C 88.5,404.833 88.5,400.167 88.5,395.5C 98.8387,395.666 109.172,395.5 119.5,395C 120.46,391.27 120.793,387.437 120.5,383.5C 129.167,383.5 137.833,383.5 146.5,383.5C 145.887,377.729 146.554,372.396 148.5,367.5 Z"/></g>
<g><path style="opacity:1" fill="#a8b9cf" d="M 162.5,347.5 C 162.5,349.167 162.5,350.833 162.5,352.5C 161.5,352.5 160.5,352.5 159.5,352.5C 158.655,364.653 157.988,376.82 157.5,389C 157.964,397.508 158.13,406.008 158,414.5C 156.599,412.808 154.766,412.141 152.5,412.5C 152.851,414.869 153.018,417.203 153,419.5C 152.667,419.167 152.333,418.833 152,418.5C 151.821,414.975 151.321,411.641 150.5,408.5C 150.167,408.5 149.833,408.5 149.5,408.5C 149.308,393.149 149.641,377.816 150.5,362.5C 150.325,354.019 151.991,346.019 155.5,338.5C 158.084,337.952 159.084,336.285 158.5,333.5C 160.288,333.215 161.955,333.548 163.5,334.5C 162.561,338.765 162.228,343.098 162.5,347.5 Z"/></g>
<g><path style="opacity:1" fill="#828da0" d="M 182.5,339.5 C 182.579,343.202 182.246,346.868 181.5,350.5C 178.928,357.254 177.928,364.254 178.5,371.5C 177.778,371.918 177.278,372.584 177,373.5C 176.397,386.511 176.564,399.511 177.5,412.5C 174.335,391.432 175.002,370.432 179.5,349.5C 180.712,346.22 181.712,342.887 182.5,339.5 Z"/></g>
<g><path style="opacity:1" fill="#7f879a" d="M 551.5,368.5 C 552.167,369.5 552.833,370.5 553.5,371.5C 553.666,381.839 553.5,392.172 553,402.5C 552.817,405.365 552.317,408.031 551.5,410.5C 551.5,406.833 551.5,403.167 551.5,399.5C 552.575,389.327 552.575,378.994 551.5,368.5 Z"/></g>
<g><path style="opacity:1" fill="#525e72" d="M 87.5,384.5 C 97.8333,384.5 108.167,384.5 118.5,384.5C 118.5,387.833 118.5,391.167 118.5,394.5C 108.167,394.5 97.8333,394.5 87.5,394.5C 92.9851,393.673 98.6518,393.173 104.5,393C 98.9638,389.565 93.2971,386.732 87.5,384.5 Z"/></g>
<g><path style="opacity:1" fill="#6f7a8e" d="M 150.5,362.5 C 149.641,377.816 149.308,393.149 149.5,408.5C 148.504,395.01 148.171,381.344 148.5,367.5C 149.024,365.694 149.691,364.028 150.5,362.5 Z"/></g>
<g><path style="opacity:1" fill="#36445c" d="M 623.5,381.5 C 623.5,382.5 623.5,383.5 623.5,384.5C 612.833,384.5 602.167,384.5 591.5,384.5C 591.5,387.833 591.5,391.167 591.5,394.5C 602.167,394.5 612.833,394.5 623.5,394.5C 623.5,398.833 623.5,403.167 623.5,407.5C 623.5,410.167 623.5,412.833 623.5,415.5C 623.5,416.5 623.5,417.5 623.5,418.5C 622.011,422.236 621.344,426.236 621.5,430.5C 610.524,428.98 599.524,427.646 588.5,426.5C 588.5,429.5 588.5,432.5 588.5,435.5C 585.205,436.824 583.872,435.491 584.5,431.5C 576.833,431.5 569.167,431.5 561.5,431.5C 561.66,429.801 561.494,428.134 561,426.5C 559.24,432.384 557.907,438.384 557,444.5C 556.066,445.858 555.232,447.192 554.5,448.5C 556.947,436.812 559.28,425.145 561.5,413.5C 563.499,401.533 563.832,389.533 562.5,377.5C 562.782,372.073 562.449,366.74 561.5,361.5C 561.336,358.813 561.503,356.146 562,353.5C 562.333,353.833 562.667,354.167 563,354.5C 563.978,364.205 565.145,373.872 566.5,383.5C 585.487,382.543 604.487,381.876 623.5,381.5 Z"/></g>
<g><path style="opacity:1" fill="#afb4bc" d="M 624.5,373.5 C 625.166,379.324 625.5,385.324 625.5,391.5C 625.724,399.732 625.058,407.732 623.5,415.5C 623.5,412.833 623.5,410.167 623.5,407.5C 624.486,403.03 624.819,398.363 624.5,393.5C 624.5,391.833 624.5,390.167 624.5,388.5C 624.5,383.5 624.5,378.5 624.5,373.5 Z"/></g>
<g><path style="opacity:1" fill="#868da0" d="M 533.5,359.5 C 534.302,360.952 534.802,362.618 535,364.5C 535.5,375.828 535.667,387.162 535.5,398.5C 535.666,403.179 535.499,407.845 535,412.5C 534.851,416.133 534.018,419.466 532.5,422.5C 532.5,421.167 532.5,419.833 532.5,418.5C 534.777,399.021 535.111,379.355 533.5,359.5 Z"/></g>
<g><path style="opacity:1" fill="#5f697e" d="M 562.5,377.5 C 563.832,389.533 563.499,401.533 561.5,413.5C 561.5,410.833 561.5,408.167 561.5,405.5C 561.5,403.833 561.5,402.167 561.5,400.5C 562.492,393.018 562.825,385.352 562.5,377.5 Z"/></g>
<g><path style="opacity:1" fill="#515d71" d="M 623.5,364.5 C 624.477,367.287 624.81,370.287 624.5,373.5C 624.5,378.5 624.5,383.5 624.5,388.5C 622.785,389.657 620.785,390.324 618.5,390.5C 609.852,389.532 601.185,388.865 592.5,388.5C 592.5,390.167 592.5,391.833 592.5,393.5C 603.167,393.5 613.833,393.5 624.5,393.5C 624.819,398.363 624.486,403.03 623.5,407.5C 623.5,403.167 623.5,398.833 623.5,394.5C 612.833,394.5 602.167,394.5 591.5,394.5C 591.5,391.167 591.5,387.833 591.5,384.5C 602.167,384.5 612.833,384.5 623.5,384.5C 623.5,383.5 623.5,382.5 623.5,381.5C 623.5,375.833 623.5,370.167 623.5,364.5 Z"/></g>
<g><path style="opacity:1" fill="#a5b7ce" d="M 533.5,359.5 C 535.111,379.355 534.777,399.021 532.5,418.5C 531.086,416.956 530.753,415.289 531.5,413.5C 497.505,412.667 463.505,412.167 429.5,412C 428.437,410.812 427.103,410.312 425.5,410.5C 423.919,408.858 423.253,406.858 423.5,404.5C 425.564,404.313 427.564,403.813 429.5,403C 440.602,396.458 452.269,390.958 464.5,386.5C 486.107,376.24 507.774,366.074 529.5,356C 530.793,355.51 532.127,355.343 533.5,355.5C 533.5,356.833 533.5,358.167 533.5,359.5 Z"/></g>
<g><path style="opacity:1" fill="#a1b1c7" d="M 388.5,388.5 C 398.06,387.889 402.226,392.223 401,401.5C 394.343,409.826 388.343,409.493 383,400.5C 382.333,398.167 382.333,395.833 383,393.5C 384.73,391.598 386.563,389.931 388.5,388.5 Z"/></g>
<g><path style="opacity:1" fill="#7c8597" d="M 87.5,367.5 C 87.5,373.167 87.5,378.833 87.5,384.5C 93.2971,386.732 98.9638,389.565 104.5,393C 98.6518,393.173 92.9851,393.673 87.5,394.5C 87.5,399.5 87.5,404.5 87.5,409.5C 86.1667,395.5 86.1667,381.5 87.5,367.5 Z"/></g>
<g><path style="opacity:1" fill="#667185" d="M 624.5,388.5 C 624.5,390.167 624.5,391.833 624.5,393.5C 613.833,393.5 603.167,393.5 592.5,393.5C 592.5,391.833 592.5,390.167 592.5,388.5C 601.185,388.865 609.852,389.532 618.5,390.5C 620.785,390.324 622.785,389.657 624.5,388.5 Z"/></g>
<g><path style="opacity:1" fill="#9daec5" d="M 295.5,394.5 C 297.124,394.36 298.29,395.027 299,396.5C 299.866,402.988 301.033,409.322 302.5,415.5C 288.13,415.363 273.796,416.029 259.5,417.5C 257.833,417.167 256.167,416.833 254.5,416.5C 268.035,408.9 281.701,401.566 295.5,394.5 Z"/></g>
<g><path style="opacity:1" fill="#9eb1cb" d="M 425.5,410.5 C 427.103,410.312 428.437,410.812 429.5,412C 463.505,412.167 497.505,412.667 531.5,413.5C 530.753,415.289 531.086,416.956 532.5,418.5C 532.5,419.833 532.5,421.167 532.5,422.5C 531.037,433.033 528.037,443.033 523.5,452.5C 522.549,451.081 522.216,449.415 522.5,447.5C 499.455,447.187 476.455,447.521 453.5,448.5C 451.5,446.167 449.5,443.833 447.5,441.5C 440.192,431.185 432.858,420.851 425.5,410.5 Z"/></g>
<g><path style="opacity:1" fill="#9198a5" d="M 87.5,409.5 C 87.8333,409.5 88.1667,409.5 88.5,409.5C 88.7599,415.172 89.0932,420.839 89.5,426.5C 87.8827,421.084 87.216,415.417 87.5,409.5 Z"/></g>
<g><path style="opacity:1" fill="#9bacc5" d="M 359.5,431.5 C 354.474,436.447 349.141,436.781 343.5,432.5C 339.733,424.363 342.233,419.029 351,416.5C 359.548,418.262 362.381,423.262 359.5,431.5 Z"/></g>
<g><path style="opacity:1" fill="#33435e" d="M 343.5,432.5 C 349.141,436.781 354.474,436.447 359.5,431.5C 360.117,431.389 360.617,431.056 361,430.5C 370.44,431.155 379.94,431.821 389.5,432.5C 389.664,434.396 389.331,436.396 388.5,438.5C 389.699,441.51 391.033,441.843 392.5,439.5C 405.517,447.339 418.184,455.673 430.5,464.5C 428.352,464.389 428.019,465.056 429.5,466.5C 418.515,467.332 407.515,467.832 396.5,468C 395.402,468.77 395.402,469.603 396.5,470.5C 388.925,466.125 381.758,461.125 375,455.5C 374.228,455.645 373.561,455.978 373,456.5C 371.053,460.859 369.219,465.192 367.5,469.5C 367.671,466.203 367.005,465.869 365.5,468.5C 358.55,467.37 351.55,467.203 344.5,468C 343.51,471.18 341.51,473.347 338.5,474.5C 342.14,464.909 346.14,455.576 350.5,446.5C 343.972,444.548 337.305,443.215 330.5,442.5C 329.49,458.664 329.49,474.664 330.5,490.5C 330.778,492.346 330.111,493.68 328.5,494.5C 328.167,493 327.833,491.5 327.5,490C 328.551,474.175 329.051,458.341 329,442.5C 327.541,450.759 326.708,459.093 326.5,467.5C 320.5,467.5 314.5,467.5 308.5,467.5C 308.762,468.978 308.429,470.311 307.5,471.5C 306.509,467.555 306.176,463.555 306.5,459.5C 307.29,452.529 307.623,445.529 307.5,438.5C 300.825,438.334 294.158,438.5 287.5,439C 277.452,440.501 267.452,442.001 257.5,443.5C 246.773,443.97 236.106,444.97 225.5,446.5C 217.273,446.783 209.273,447.783 201.5,449.5C 196.482,449.613 191.482,449.947 186.5,450.5C 186.841,454.893 188.508,458.56 191.5,461.5C 192.363,463.421 193.029,465.421 193.5,467.5C 191.908,466.398 191.075,467.065 191,469.5C 190.667,468.5 190.333,467.5 190,466.5C 186.21,467.136 182.377,467.803 178.5,468.5C 179.145,469.732 179.311,471.065 179,472.5C 179.811,471.04 180.645,470.707 181.5,471.5C 180.05,472.85 179.383,474.516 179.5,476.5C 176.381,469.175 173.048,461.841 169.5,454.5C 167.047,447.688 165.38,440.688 164.5,433.5C 164.343,432.127 164.51,430.793 165,429.5C 194.01,430.814 223.51,431.48 253.5,431.5C 282.541,431.496 311.541,431.163 340.5,430.5C 341.518,431.193 342.518,431.859 343.5,432.5 Z"/></g>
<g><path style="opacity:1" fill="#34445f" d="M 151.5,424.5 C 153.558,433.844 155.724,443.178 158,452.5C 161.499,460.831 164.999,469.164 168.5,477.5C 166.919,475.326 165.419,472.993 164,470.5C 163.465,472.271 162.631,472.604 161.5,471.5C 162.668,470.094 162.335,468.928 160.5,468C 151.922,467.818 143.422,467.318 135,466.5C 134.5,467 134,467.5 133.5,468C 134.781,470.427 135.781,472.927 136.5,475.5C 131.658,476.369 126.992,477.703 122.5,479.5C 125.142,478.105 127.809,476.605 130.5,475C 126.686,473.873 122.853,472.706 119,471.5C 113.1,472.6 107.266,473.934 101.5,475.5C 100.883,475.389 100.383,475.056 100,474.5C 99.1497,469.712 97.983,465.045 96.5,460.5C 95.6123,455.276 94.2789,450.276 92.5,445.5C 92.5,443.833 92.5,442.167 92.5,440.5C 101.304,440.004 109.971,438.671 118.5,436.5C 122.145,437.32 124.478,435.987 125.5,432.5C 133.813,431.668 142.147,431.168 150.5,431C 148.9,428.36 149.234,426.193 151.5,424.5 Z"/></g>
<g><path style="opacity:1" fill="#35445e" d="M 551.5,399.5 C 551.5,403.167 551.5,406.833 551.5,410.5C 551.067,415.833 550.567,421.166 550,426.5C 545.452,441.311 540.618,455.978 535.5,470.5C 534.143,471.59 533.143,472.924 532.5,474.5C 532.643,472.738 532.309,471.071 531.5,469.5C 532.025,468.808 532.692,468.308 533.5,468C 529.459,467.827 525.459,467.327 521.5,466.5C 523.04,465.468 523.54,464.135 523,462.5C 522.29,463.973 521.124,464.64 519.5,464.5C 520.84,460.458 522.174,456.458 523.5,452.5C 528.037,443.033 531.037,433.033 532.5,422.5C 534.018,419.466 534.851,416.133 535,412.5C 535.499,407.845 535.666,403.179 535.5,398.5C 536.117,398.389 536.617,398.056 537,397.5C 537.811,390.586 537.645,383.752 536.5,377C 537.249,375.266 537.749,373.433 538,371.5C 539.015,375.44 539.515,379.44 539.5,383.5C 542.5,383.5 545.5,383.5 548.5,383.5C 548.334,378.156 548.501,372.823 549,367.5C 550.556,378.111 551.389,388.778 551.5,399.5 Z"/></g>
<g><path style="opacity:1" fill="#33435e" d="M 588.5,435.5 C 598.506,436.941 608.506,438.608 618.5,440.5C 618.5,441.5 618.5,442.5 618.5,443.5C 616.468,454.326 613.802,464.992 610.5,475.5C 609.85,475.804 609.183,476.137 608.5,476.5C 598.925,471.938 588.925,468.605 578.5,466.5C 578.296,469.518 577.963,472.518 577.5,475.5C 576.624,475.631 575.957,475.298 575.5,474.5C 576.374,472.253 576.708,469.92 576.5,467.5C 568.14,467.831 559.807,467.498 551.5,466.5C 551,465.5 550.5,464.5 550,463.5C 549.722,464.416 549.222,465.082 548.5,465.5C 550.573,460.762 551.907,455.762 552.5,450.5C 552.747,449.287 553.414,448.62 554.5,448.5C 555.232,447.192 556.066,445.858 557,444.5C 557.907,438.384 559.24,432.384 561,426.5C 561.494,428.134 561.66,429.801 561.5,431.5C 569.167,431.5 576.833,431.5 584.5,431.5C 583.872,435.491 585.205,436.824 588.5,435.5 Z"/></g>
<g><path style="opacity:1" fill="#606d84" d="M 89.5,428.5 C 90.8787,429.609 92.5453,430.276 94.5,430.5C 100.149,429.54 105.815,429.373 111.5,430C 112.716,431.74 114.382,432.74 116.5,433C 117.823,433.816 118.489,434.983 118.5,436.5C 109.971,438.671 101.304,440.004 92.5,440.5C 92.5,442.167 92.5,443.833 92.5,445.5C 90.8634,440.073 89.8634,434.407 89.5,428.5 Z"/></g>
<g><path style="opacity:1" fill="#96a9c2" d="M 414.5,436.5 C 420.242,445.643 426.242,454.643 432.5,463.5C 432.043,464.298 431.376,464.631 430.5,464.5C 418.184,455.673 405.517,447.339 392.5,439.5C 390.887,438.162 390.387,436.495 391,434.5C 395.015,430.318 399.182,426.318 403.5,422.5C 407.19,427.185 410.857,431.852 414.5,436.5 Z"/></g>
<g><path style="opacity:1" fill="#5c6980" d="M 623.5,418.5 C 623.597,427.351 621.931,435.685 618.5,443.5C 618.5,442.5 618.5,441.5 618.5,440.5C 608.506,438.608 598.506,436.941 588.5,435.5C 588.5,432.5 588.5,429.5 588.5,426.5C 599.524,427.646 610.524,428.98 621.5,430.5C 621.344,426.236 622.011,422.236 623.5,418.5 Z"/></g>
<g><path style="opacity:1" fill="#707d95" d="M 306.5,459.5 C 306.167,459.5 305.833,459.5 305.5,459.5C 305.954,452.841 306.287,446.174 306.5,439.5C 290.229,441.217 273.896,442.55 257.5,443.5C 267.452,442.001 277.452,440.501 287.5,439C 294.158,438.5 300.825,438.334 307.5,438.5C 307.623,445.529 307.29,452.529 306.5,459.5 Z"/></g>
<g><path style="opacity:1" fill="#96abc6" d="M 305.5,459.5 C 305.5,461.5 305.5,463.5 305.5,465.5C 303.698,473.542 302.698,473.208 302.5,464.5C 266.833,464.5 231.167,464.5 195.5,464.5C 195.5,463.5 195.5,462.5 195.5,461.5C 194.167,461.5 192.833,461.5 191.5,461.5C 188.508,458.56 186.841,454.893 186.5,450.5C 191.482,449.947 196.482,449.613 201.5,449.5C 209.163,449.022 216.83,448.522 224.5,448C 225.056,447.617 225.389,447.117 225.5,446.5C 236.106,444.97 246.773,443.97 257.5,443.5C 273.896,442.55 290.229,441.217 306.5,439.5C 306.287,446.174 305.954,452.841 305.5,459.5 Z"/></g>
<g><path style="opacity:1" fill="#94aac5" d="M 523.5,452.5 C 522.174,456.458 520.84,460.458 519.5,464.5C 512.512,478.474 504.012,491.474 494,503.5C 480.308,485.308 466.808,466.975 453.5,448.5C 476.455,447.521 499.455,447.187 522.5,447.5C 522.216,449.415 522.549,451.081 523.5,452.5 Z"/></g>
<g><path style="opacity:1" fill="#98aac4" d="M 553.5,371.5 C 554.329,378.989 554.829,386.656 555,394.5C 555.497,392.19 555.663,389.857 555.5,387.5C 556.833,387.5 558.167,387.5 559.5,387.5C 559.982,393.66 560.649,399.66 561.5,405.5C 561.5,408.167 561.5,410.833 561.5,413.5C 559.28,425.145 556.947,436.812 554.5,448.5C 553.414,448.62 552.747,449.287 552.5,450.5C 551.907,455.762 550.573,460.762 548.5,465.5C 547.857,467.076 546.857,468.41 545.5,469.5C 543.455,470.923 542.455,472.923 542.5,475.5C 539.398,475.154 536.565,475.821 534,477.5C 534.157,475.169 534.657,472.836 535.5,470.5C 540.618,455.978 545.452,441.311 550,426.5C 550.567,421.166 551.067,415.833 551.5,410.5C 552.317,408.031 552.817,405.365 553,402.5C 553.5,392.172 553.666,381.839 553.5,371.5 Z"/></g>
<g><path style="opacity:1" fill="#727d95" d="M 225.5,446.5 C 225.389,447.117 225.056,447.617 224.5,448C 216.83,448.522 209.163,449.022 201.5,449.5C 209.273,447.783 217.273,446.783 225.5,446.5 Z"/></g>
<g><path style="opacity:1" fill="#bbc0c8" d="M 92.5,445.5 C 94.2789,450.276 95.6123,455.276 96.5,460.5C 95.0108,458.884 94.0108,456.884 93.5,454.5C 92.5159,451.572 92.1826,448.572 92.5,445.5 Z"/></g>
<g><path style="opacity:1" fill="#94a6c1" d="M 162.5,352.5 C 162.147,356.913 161.314,361.246 160,365.5C 159.172,381.006 159.339,396.339 160.5,411.5C 161.515,419.005 162.849,426.339 164.5,433.5C 165.38,440.688 167.047,447.688 169.5,454.5C 173.048,461.841 176.381,469.175 179.5,476.5C 180.492,478.456 181.492,480.456 182.5,482.5C 182.698,484.575 182.865,486.575 183,488.5C 181.419,486.425 179.585,486.425 177.5,488.5C 179.092,490.225 178.758,491.225 176.5,491.5C 173.284,487.059 170.618,482.393 168.5,477.5C 164.999,469.164 161.499,460.831 158,452.5C 155.724,443.178 153.558,433.844 151.5,424.5C 150.725,419.203 150.392,413.87 150.5,408.5C 151.321,411.641 151.821,414.975 152,418.5C 152.333,418.833 152.667,419.167 153,419.5C 153.018,417.203 152.851,414.869 152.5,412.5C 154.766,412.141 156.599,412.808 158,414.5C 158.13,406.008 157.964,397.508 157.5,389C 157.988,376.82 158.655,364.653 159.5,352.5C 160.5,352.5 161.5,352.5 162.5,352.5 Z"/></g>
<g><path style="opacity:1" fill="#93a6c2" d="M 338.5,474.5 C 334.882,479.35 332.216,484.683 330.5,490.5C 329.49,474.664 329.49,458.664 330.5,442.5C 337.305,443.215 343.972,444.548 350.5,446.5C 346.14,455.576 342.14,464.909 338.5,474.5 Z"/></g>
<g><path style="opacity:1" fill="#2e4261" d="M 577.5,475.5 C 586.241,478.366 594.907,481.533 603.5,485C 604.756,485.417 605.423,486.25 605.5,487.5C 601.987,498.379 597.321,508.712 591.5,518.5C 586.564,516.804 581.897,514.638 577.5,512C 574.167,509.667 570.833,507.333 567.5,505C 562.706,504.105 559.706,506.105 558.5,511C 558.645,511.772 558.978,512.439 559.5,513C 568.578,517.6 577.245,522.767 585.5,528.5C 579.949,538.381 573.616,547.714 566.5,556.5C 564.345,556.628 562.345,556.128 560.5,555C 554.167,549.333 547.833,543.667 541.5,538C 540.423,537.53 539.423,537.697 538.5,538.5C 538.631,537.624 538.298,536.957 537.5,536.5C 531.882,537.145 526.215,537.478 520.5,537.5C 514.754,537.474 509.254,536.807 504,535.5C 503.184,536.823 502.017,537.489 500.5,537.5C 506.5,530.5 512.5,523.5 518.5,516.5C 530.12,502.243 539.12,486.577 545.5,469.5C 546.857,468.41 547.857,467.076 548.5,465.5C 549.222,465.082 549.722,464.416 550,463.5C 550.5,464.5 551,465.5 551.5,466.5C 559.807,467.498 568.14,467.831 576.5,467.5C 576.708,469.92 576.374,472.253 575.5,474.5C 575.957,475.298 576.624,475.631 577.5,475.5 Z"/></g>
<g><path style="opacity:1" fill="#2e4261" d="M 168.5,477.5 C 170.618,482.393 173.284,487.059 176.5,491.5C 180.322,497.806 184.155,504.139 188,510.5C 194.736,518.393 201.236,526.393 207.5,534.5C 206.448,534.351 205.448,534.517 204.5,535C 206.923,535.732 208.09,537.232 208,539.5C 207.5,539 207,538.5 206.5,538C 195.59,537.821 184.757,537.321 174,536.5C 173.805,537.819 173.972,539.153 174.5,540.5C 172.757,538.564 170.757,538.23 168.5,539.5C 161.463,545.871 154.129,551.871 146.5,557.5C 138.864,548.909 132.197,539.575 126.5,529.5C 126.511,527.983 127.177,526.816 128.5,526C 132.194,523.822 135.861,521.655 139.5,519.5C 144.677,517.647 149.01,514.647 152.5,510.5C 151.388,508.61 150.554,506.61 150,504.5C 149.439,503.978 148.772,503.645 148,503.5C 139.988,508.585 131.822,513.251 123.5,517.5C 122.432,518.434 121.099,518.768 119.5,518.5C 114.076,508.585 109.41,498.252 105.5,487.5C 106.084,485.743 107.251,484.41 109,483.5C 113.597,482.382 118.097,481.048 122.5,479.5C 126.992,477.703 131.658,476.369 136.5,475.5C 135.781,472.927 134.781,470.427 133.5,468C 134,467.5 134.5,467 135,466.5C 143.422,467.318 151.922,467.818 160.5,468C 162.335,468.928 162.668,470.094 161.5,471.5C 162.631,472.604 163.465,472.271 164,470.5C 165.419,472.993 166.919,475.326 168.5,477.5 Z"/></g>
<g><path style="opacity:1" fill="#304260" d="M 447.5,441.5 C 449.5,443.833 451.5,446.167 453.5,448.5C 466.808,466.975 480.308,485.308 494,503.5C 504.012,491.474 512.512,478.474 519.5,464.5C 521.124,464.64 522.29,463.973 523,462.5C 523.54,464.135 523.04,465.468 521.5,466.5C 525.459,467.327 529.459,467.827 533.5,468C 532.692,468.308 532.025,468.808 531.5,469.5C 532.309,471.071 532.643,472.738 532.5,474.5C 526.165,488.507 518.165,501.507 508.5,513.5C 502.731,520.025 496.731,526.358 490.5,532.5C 490.483,530.972 489.816,530.472 488.5,531C 485.769,533.644 482.936,536.144 480,538.5C 474.53,537.185 469.03,537.185 463.5,538.5C 463.331,537.603 462.998,536.603 462.5,535.5C 461.378,536.63 460.044,537.297 458.5,537.5C 458.833,536.833 459.167,536.167 459.5,535.5C 464.409,532.926 468.742,529.592 472.5,525.5C 466.353,520.592 460.02,515.925 453.5,511.5C 434.324,498.078 415.324,484.412 396.5,470.5C 395.402,469.603 395.402,468.77 396.5,468C 407.515,467.832 418.515,467.332 429.5,466.5C 428.019,465.056 428.352,464.389 430.5,464.5C 431.376,464.631 432.043,464.298 432.5,463.5C 426.242,454.643 420.242,445.643 414.5,436.5C 415.413,434.914 415.413,433.414 414.5,432C 422.493,431.5 430.493,431.334 438.5,431.5C 440.427,436.402 443.427,439.735 447.5,441.5 Z"/></g>
<g><path style="opacity:1" fill="#2f4160" d="M 330.5,490.5 C 332.216,484.683 334.882,479.35 338.5,474.5C 341.51,473.347 343.51,471.18 344.5,468C 351.55,467.203 358.55,467.37 365.5,468.5C 367.005,465.869 367.671,466.203 367.5,469.5C 361.836,482.824 356.169,496.157 350.5,509.5C 346.786,516.305 343.452,523.305 340.5,530.5C 339.833,531.5 339.167,532.5 338.5,533.5C 338.649,532.448 338.483,531.448 338,530.5C 336.289,532.956 334.956,535.623 334,538.5C 323.582,537.513 313.082,537.18 302.5,537.5C 302.548,530.156 302.882,522.823 303.5,515.5C 303.478,512.41 302.812,509.743 301.5,507.5C 302.319,498.848 302.986,490.182 303.5,481.5C 304.969,476.284 305.635,470.95 305.5,465.5C 305.5,463.5 305.5,461.5 305.5,459.5C 305.833,459.5 306.167,459.5 306.5,459.5C 306.176,463.555 306.509,467.555 307.5,471.5C 308.429,470.311 308.762,468.978 308.5,467.5C 314.5,467.5 320.5,467.5 326.5,467.5C 326.708,459.093 327.541,450.759 329,442.5C 329.051,458.341 328.551,474.175 327.5,490C 327.833,491.5 328.167,493 328.5,494.5C 330.111,493.68 330.778,492.346 330.5,490.5 Z"/></g>
<g><path style="opacity:1" fill="#596982" d="M 122.5,479.5 C 118.097,481.048 113.597,482.382 109,483.5C 107.251,484.41 106.084,485.743 105.5,487.5C 102.958,484.039 101.625,480.039 101.5,475.5C 107.266,473.934 113.1,472.6 119,471.5C 122.853,472.706 126.686,473.873 130.5,475C 127.809,476.605 125.142,478.105 122.5,479.5 Z"/></g>
<g><path style="opacity:1" fill="#91a7c4" d="M 191.5,461.5 C 192.833,461.5 194.167,461.5 195.5,461.5C 195.5,462.5 195.5,463.5 195.5,464.5C 231.167,464.5 266.833,464.5 302.5,464.5C 302.698,473.208 303.698,473.542 305.5,465.5C 305.635,470.95 304.969,476.284 303.5,481.5C 301.901,486.569 301.067,491.902 301,497.5C 300.502,494.183 300.335,490.85 300.5,487.5C 269.832,487.333 239.165,487.5 208.5,488C 209.451,488.718 209.617,489.551 209,490.5C 208.329,489.748 207.496,489.414 206.5,489.5C 202.127,482.142 197.794,474.808 193.5,467.5C 193.029,465.421 192.363,463.421 191.5,461.5 Z"/></g>
<g><path style="opacity:1" fill="#54647e" d="M 610.5,475.5 C 609.726,479.998 608.06,483.998 605.5,487.5C 605.423,486.25 604.756,485.417 603.5,485C 594.907,481.533 586.241,478.366 577.5,475.5C 577.963,472.518 578.296,469.518 578.5,466.5C 588.925,468.605 598.925,471.938 608.5,476.5C 609.183,476.137 609.85,475.804 610.5,475.5 Z"/></g>
<g><path style="opacity:1" fill="#8ca3c1" d="M 396.5,470.5 C 415.324,484.412 434.324,498.078 453.5,511.5C 453.577,512.75 454.244,513.583 455.5,514C 453.212,514.418 451.212,513.751 449.5,512C 416.835,511.5 384.168,511.333 351.5,511.5C 351.392,513.783 350.559,515.783 349,517.5C 348.955,514.78 349.455,512.114 350.5,509.5C 356.169,496.157 361.836,482.824 367.5,469.5C 369.219,465.192 371.053,460.859 373,456.5C 373.561,455.978 374.228,455.645 375,455.5C 381.758,461.125 388.925,466.125 396.5,470.5 Z"/></g>
<g><path style="opacity:1" fill="#899fbc" d="M 545.5,469.5 C 539.12,486.577 530.12,502.243 518.5,516.5C 517.624,516.631 516.957,516.298 516.5,515.5C 520.468,511.712 519.468,510.546 513.5,512C 511.983,513.685 510.316,515.185 508.5,516.5C 507.913,515.767 507.913,514.767 508.5,513.5C 518.165,501.507 526.165,488.507 532.5,474.5C 533.143,472.924 534.143,471.59 535.5,470.5C 534.657,472.836 534.157,475.169 534,477.5C 536.565,475.821 539.398,475.154 542.5,475.5C 542.455,472.923 543.455,470.923 545.5,469.5 Z"/></g>
<g><path style="opacity:1" fill="#8ca3c1" d="M 303.5,481.5 C 302.986,490.182 302.319,498.848 301.5,507.5C 301.634,509.292 301.301,510.958 300.5,512.5C 299.71,513.609 299.21,514.942 299,516.5C 298.506,514.866 298.34,513.199 298.5,511.5C 274.831,511.333 251.164,511.5 227.5,512C 229.49,513.84 229.49,515.007 227.5,515.5C 219.802,507.461 212.802,498.795 206.5,489.5C 207.496,489.414 208.329,489.748 209,490.5C 209.617,489.551 209.451,488.718 208.5,488C 239.165,487.5 269.832,487.333 300.5,487.5C 300.335,490.85 300.502,494.183 301,497.5C 301.067,491.902 301.901,486.569 303.5,481.5 Z"/></g>
<g><path style="opacity:1" fill="#859ebe" d="M 350.5,509.5 C 349.455,512.114 348.955,514.78 349,517.5C 350.559,515.783 351.392,513.783 351.5,511.5C 384.168,511.333 416.835,511.5 449.5,512C 451.212,513.751 453.212,514.418 455.5,514C 454.244,513.583 453.577,512.75 453.5,511.5C 460.02,515.925 466.353,520.592 472.5,525.5C 468.742,529.592 464.409,532.926 459.5,535.5C 420.204,534.179 380.871,534.179 341.5,535.5C 341.192,536.308 340.692,536.975 340,537.5C 339.982,535.203 340.149,532.869 340.5,530.5C 343.452,523.305 346.786,516.305 350.5,509.5 Z"/></g>
<g><path style="opacity:1" fill="#475a77" d="M 139.5,519.5 C 139.38,518.414 138.713,517.747 137.5,517.5C 134.833,516.833 132.167,516.167 129.5,515.5C 127.666,516.754 125.666,517.421 123.5,517.5C 131.822,513.251 139.988,508.585 148,503.5C 148.772,503.645 149.439,503.978 150,504.5C 150.554,506.61 151.388,508.61 152.5,510.5C 149.01,514.647 144.677,517.647 139.5,519.5 Z"/></g>
<g><path style="opacity:1" fill="#4c5e7b" d="M 591.5,518.5 C 590.002,522.168 588.002,525.502 585.5,528.5C 577.245,522.767 568.578,517.6 559.5,513C 558.978,512.439 558.645,511.772 558.5,511C 559.706,506.105 562.706,504.105 567.5,505C 570.833,507.333 574.167,509.667 577.5,512C 581.897,514.638 586.564,516.804 591.5,518.5 Z"/></g>
<g><path style="opacity:1" fill="#5c6e8a" d="M 139.5,519.5 C 135.861,521.655 132.194,523.822 128.5,526C 127.177,526.816 126.511,527.983 126.5,529.5C 123.92,526.011 121.587,522.344 119.5,518.5C 121.099,518.768 122.432,518.434 123.5,517.5C 125.666,517.421 127.666,516.754 129.5,515.5C 132.167,516.167 134.833,516.833 137.5,517.5C 138.713,517.747 139.38,518.414 139.5,519.5 Z"/></g>
<g><path style="opacity:1" fill="#2b4163" d="M 193.5,467.5 C 197.794,474.808 202.127,482.142 206.5,489.5C 212.802,498.795 219.802,507.461 227.5,515.5C 243.138,531.5 261.138,544.334 281.5,554C 286.15,556.605 291.15,558.105 296.5,558.5C 298.274,543.208 299.608,527.874 300.5,512.5C 301.301,510.958 301.634,509.292 301.5,507.5C 302.812,509.743 303.478,512.41 303.5,515.5C 302.882,522.823 302.548,530.156 302.5,537.5C 313.082,537.18 323.582,537.513 334,538.5C 334.956,535.623 336.289,532.956 338,530.5C 338.483,531.448 338.649,532.448 338.5,533.5C 336.889,537.501 335.556,541.668 334.5,546C 330.468,552.894 327.135,560.06 324.5,567.5C 326.5,567.5 328.5,567.5 330.5,567.5C 331.952,568.302 333.618,568.802 335.5,569C 347.341,569.826 359.007,569.659 370.5,568.5C 402.457,565.294 431.791,554.961 458.5,537.5C 460.044,537.297 461.378,536.63 462.5,535.5C 462.998,536.603 463.331,537.603 463.5,538.5C 469.03,537.185 474.53,537.185 480,538.5C 482.936,536.144 485.769,533.644 488.5,531C 489.816,530.472 490.483,530.972 490.5,532.5C 473.743,547.868 455.076,560.201 434.5,569.5C 377.769,593.301 321.769,591.967 266.5,565.5C 230.576,545.91 202.576,518.243 182.5,482.5C 181.492,480.456 180.492,478.456 179.5,476.5C 179.383,474.516 180.05,472.85 181.5,471.5C 180.645,470.707 179.811,471.04 179,472.5C 179.311,471.065 179.145,469.732 178.5,468.5C 182.377,467.803 186.21,467.136 190,466.5C 190.333,467.5 190.667,468.5 191,469.5C 191.075,467.065 191.908,466.398 193.5,467.5 Z"/></g>
<g><path style="opacity:1" fill="#849cbd" d="M 300.5,512.5 C 299.608,527.874 298.274,543.208 296.5,558.5C 291.15,558.105 286.15,556.605 281.5,554C 261.138,544.334 243.138,531.5 227.5,515.5C 229.49,515.007 229.49,513.84 227.5,512C 251.164,511.5 274.831,511.333 298.5,511.5C 298.34,513.199 298.506,514.866 299,516.5C 299.21,514.942 299.71,513.609 300.5,512.5 Z"/></g>
<g><path style="opacity:1" fill="#7e96b7" d="M 518.5,516.5 C 512.5,523.5 506.5,530.5 500.5,537.5C 485.514,551.168 469.181,562.835 451.5,572.5C 449.94,572.519 448.44,572.852 447,573.5C 446.5,573.167 446,572.833 445.5,572.5C 446.376,571.749 447.376,571.249 448.5,571C 442.596,570.119 436.93,570.953 431.5,573.5C 430.833,573.333 430.167,573.167 429.5,573C 431.346,571.97 433.013,570.804 434.5,569.5C 455.076,560.201 473.743,547.868 490.5,532.5C 496.731,526.358 502.731,520.025 508.5,513.5C 507.913,514.767 507.913,515.767 508.5,516.5C 510.316,515.185 511.983,513.685 513.5,512C 519.468,510.546 520.468,511.712 516.5,515.5C 516.957,516.298 517.624,516.631 518.5,516.5 Z"/></g>
<g><path style="opacity:1" fill="#2a4063" d="M 207.5,534.5 C 223.124,549.631 240.457,562.298 259.5,572.5C 263.221,575.027 267.221,577.027 271.5,578.5C 269.193,578.014 267.027,578.014 265,578.5C 262.125,576.419 258.958,574.919 255.5,574C 240.156,573.167 224.822,573.334 209.5,574.5C 207.192,577.975 204.692,581.308 202,584.5C 201.722,583.584 201.222,582.918 200.5,582.5C 202.474,579.518 204.474,576.518 206.5,573.5C 204.167,571.833 202.167,569.833 200.5,567.5C 194.441,573.939 188.608,580.605 183,587.5C 181.736,589.607 179.903,590.607 177.5,590.5C 169.554,583.221 161.887,575.554 154.5,567.5C 154.238,566.022 154.571,564.689 155.5,563.5C 162.707,557.122 170.04,550.955 177.5,545C 175.9,543.877 174.9,542.377 174.5,540.5C 173.972,539.153 173.805,537.819 174,536.5C 184.757,537.321 195.59,537.821 206.5,538C 207,538.5 207.5,539 208,539.5C 208.09,537.232 206.923,535.732 204.5,535C 205.448,534.517 206.448,534.351 207.5,534.5 Z"/></g>
<g><path style="opacity:1" fill="#2a4063" d="M 538.5,538.5 C 536.44,540.655 534.94,542.988 534,545.5C 540.742,551.12 547.575,556.62 554.5,562C 556.141,563.129 557.141,564.629 557.5,566.5C 552.872,572.463 547.872,578.13 542.5,583.5C 541.167,584.167 540.167,585.167 539.5,586.5C 536.55,588.115 533.884,590.115 531.5,592.5C 531.291,591.078 530.791,589.745 530,588.5C 523.811,581.946 517.978,575.112 512.5,568C 510.369,568.398 508.369,569.398 506.5,571C 504.963,572.11 504.297,573.61 504.5,575.5C 503.05,576.658 502.05,576.158 501.5,574C 486.5,573.333 471.5,573.333 456.5,574C 453.736,574.532 451.07,575.366 448.5,576.5C 447.537,576.03 447.537,575.363 448.5,574.5C 449.71,574.068 450.71,573.401 451.5,572.5C 469.181,562.835 485.514,551.168 500.5,537.5C 502.017,537.489 503.184,536.823 504,535.5C 509.254,536.807 514.754,537.474 520.5,537.5C 526.215,537.478 531.882,537.145 537.5,536.5C 538.298,536.957 538.631,537.624 538.5,538.5 Z"/></g>
<g><path style="opacity:1" fill="#7f97b7" d="M 182.5,482.5 C 202.576,518.243 230.576,545.91 266.5,565.5C 266.47,566.497 266.97,567.164 268,567.5C 270.749,567.974 273.249,568.974 275.5,570.5C 271.62,570.588 267.62,570.754 263.5,571C 264.672,571.419 265.672,572.085 266.5,573C 264.203,573.018 261.869,572.851 259.5,572.5C 240.457,562.298 223.124,549.631 207.5,534.5C 201.236,526.393 194.736,518.393 188,510.5C 184.155,504.139 180.322,497.806 176.5,491.5C 178.758,491.225 179.092,490.225 177.5,488.5C 179.585,486.425 181.419,486.425 183,488.5C 182.865,486.575 182.698,484.575 182.5,482.5 Z"/></g>
<g><path style="opacity:1" fill="#7e98ba" d="M 340.5,530.5 C 340.149,532.869 339.982,535.203 340,537.5C 340.692,536.975 341.192,536.308 341.5,535.5C 380.871,534.179 420.204,534.179 459.5,535.5C 459.167,536.167 458.833,536.833 458.5,537.5C 431.791,554.961 402.457,565.294 370.5,568.5C 357.15,568.639 343.817,568.306 330.5,567.5C 328.5,567.5 326.5,567.5 324.5,567.5C 327.135,560.06 330.468,552.894 334.5,546C 335.556,541.668 336.889,537.501 338.5,533.5C 339.167,532.5 339.833,531.5 340.5,530.5 Z"/></g>
<g><path style="opacity:1" fill="#495e7d" d="M 566.5,556.5 C 564.212,560.456 561.212,563.789 557.5,566.5C 557.141,564.629 556.141,563.129 554.5,562C 547.575,556.62 540.742,551.12 534,545.5C 534.94,542.988 536.44,540.655 538.5,538.5C 539.423,537.697 540.423,537.53 541.5,538C 547.833,543.667 554.167,549.333 560.5,555C 562.345,556.128 564.345,556.628 566.5,556.5 Z"/></g>
<g><path style="opacity:1" fill="#4b607f" d="M 174.5,540.5 C 174.9,542.377 175.9,543.877 177.5,545C 170.04,550.955 162.707,557.122 155.5,563.5C 154.571,564.689 154.238,566.022 154.5,567.5C 151.355,564.54 148.688,561.207 146.5,557.5C 154.129,551.871 161.463,545.871 168.5,539.5C 170.757,538.23 172.757,538.564 174.5,540.5 Z"/></g>
<g><path style="opacity:1" fill="#516586" d="M 330.5,567.5 C 343.817,568.306 357.15,568.639 370.5,568.5C 359.007,569.659 347.341,569.826 335.5,569C 333.618,568.802 331.952,568.302 330.5,567.5 Z"/></g>
<g><path style="opacity:1" fill="#273f65" d="M 271.5,578.5 C 313.26,596.006 356.593,600.173 401.5,591C 410.675,588.037 420.009,585.37 429.5,583C 435.73,579.938 442.063,577.104 448.5,574.5C 447.537,575.363 447.537,576.03 448.5,576.5C 451.07,575.366 453.736,574.532 456.5,574C 471.5,573.333 486.5,573.333 501.5,574C 502.05,576.158 503.05,576.658 504.5,575.5C 506.017,575.511 507.184,576.177 508,577.5C 513.714,584.375 519.214,591.375 524.5,598.5C 515.384,605.947 505.717,612.614 495.5,618.5C 493.132,616.157 490.965,613.491 489,610.5C 486.091,603.676 482.424,597.342 478,591.5C 474.777,592.552 472.277,594.552 470.5,597.5C 474.5,604.651 478.666,611.651 483,618.5C 484.202,620.677 484.702,623.011 484.5,625.5C 474.281,630.443 463.948,635.11 453.5,639.5C 451.852,637.44 450.352,635.107 449,632.5C 446.661,625.482 444.327,618.482 442,611.5C 440.644,610.62 439.144,610.286 437.5,610.5C 437.918,609.778 438.584,609.278 439.5,609C 384.887,609.321 330.221,609.654 275.5,610C 276.056,610.383 276.389,610.883 276.5,611.5C 274.194,611.007 271.861,610.674 269.5,610.5C 267,617.833 264.5,625.166 262,632.5C 260.946,635.314 259.446,637.647 257.5,639.5C 251.932,637.395 246.265,635.228 240.5,633C 235.945,630.275 231.278,627.775 226.5,625.5C 226.372,623.345 226.872,621.345 228,619.5C 232.876,612.178 237.376,604.678 241.5,597C 239.037,594.93 236.371,593.097 233.5,591.5C 233.167,591.833 232.833,592.167 232.5,592.5C 228.352,600.796 223.685,608.796 218.5,616.5C 216.955,617.452 215.288,617.785 213.5,617.5C 207.401,613.917 201.401,610.083 195.5,606C 192.334,604 189.668,601.5 187.5,598.5C 191.083,592.581 195.416,587.248 200.5,582.5C 201.222,582.918 201.722,583.584 202,584.5C 204.692,581.308 207.192,577.975 209.5,574.5C 224.822,573.334 240.156,573.167 255.5,574C 258.958,574.919 262.125,576.419 265,578.5C 267.027,578.014 269.193,578.014 271.5,578.5 Z"/></g>
<g><path style="opacity:1" fill="#445b7c" d="M 200.5,582.5 C 195.416,587.248 191.083,592.581 187.5,598.5C 183.428,596.792 180.095,594.126 177.5,590.5C 179.903,590.607 181.736,589.607 183,587.5C 188.608,580.605 194.441,573.939 200.5,567.5C 202.167,569.833 204.167,571.833 206.5,573.5C 204.474,576.518 202.474,579.518 200.5,582.5 Z"/></g>
<g><path style="opacity:1" fill="#455d7e" d="M 531.5,592.5 C 531.167,593.167 530.833,593.833 530.5,594.5C 528.5,595.833 526.5,597.167 524.5,598.5C 519.214,591.375 513.714,584.375 508,577.5C 507.184,576.177 506.017,575.511 504.5,575.5C 504.297,573.61 504.963,572.11 506.5,571C 508.369,569.398 510.369,568.398 512.5,568C 517.978,575.112 523.811,581.946 530,588.5C 530.791,589.745 531.291,591.078 531.5,592.5 Z"/></g>
<g><path style="opacity:1" fill="#748eb2" d="M 266.5,565.5 C 321.769,591.967 377.769,593.301 434.5,569.5C 433.013,570.804 431.346,571.97 429.5,573C 430.167,573.167 430.833,573.333 431.5,573.5C 436.93,570.953 442.596,570.119 448.5,571C 447.376,571.249 446.376,571.749 445.5,572.5C 446,572.833 446.5,573.167 447,573.5C 448.44,572.852 449.94,572.519 451.5,572.5C 450.71,573.401 449.71,574.068 448.5,574.5C 442.063,577.104 435.73,579.938 429.5,583C 420.009,585.37 410.675,588.037 401.5,591C 356.593,600.173 313.26,596.006 271.5,578.5C 267.221,577.027 263.221,575.027 259.5,572.5C 261.869,572.851 264.203,573.018 266.5,573C 265.672,572.085 264.672,571.419 263.5,571C 267.62,570.754 271.62,570.588 275.5,570.5C 273.249,568.974 270.749,567.974 268,567.5C 266.97,567.164 266.47,566.497 266.5,565.5 Z"/></g>
<g><path style="opacity:1" fill="#61324b" d="M 542.5,583.5 C 568.176,598.181 593.842,612.848 619.5,627.5C 618.417,627.461 617.417,627.127 616.5,626.5C 610.551,627.292 604.551,627.792 598.5,628C 600.555,630.055 602.888,631.721 605.5,633C 607.141,634.129 608.141,635.629 608.5,637.5C 601.475,633.323 594.808,628.656 588.5,623.5C 572.45,610.782 556.117,598.449 539.5,586.5C 540.167,585.167 541.167,584.167 542.5,583.5 Z"/></g>
<g><path style="opacity:1" fill="#512b48" d="M 539.5,586.5 C 556.117,598.449 572.45,610.782 588.5,623.5C 574.667,624.825 560.833,624.825 547,623.5C 546.517,624.448 546.351,625.448 546.5,626.5C 541.376,615.84 536.043,605.173 530.5,594.5C 530.833,593.833 531.167,593.167 531.5,592.5C 533.884,590.115 536.55,588.115 539.5,586.5 Z"/></g>
<g><path style="opacity:1" fill="#243f66" d="M 437.5,610.5 C 436.22,611.931 434.553,612.598 432.5,612.5C 435.652,622.325 438.985,632.158 442.5,642C 440.195,643.642 437.862,645.142 435.5,646.5C 430.54,647.216 425.874,648.549 421.5,650.5C 418.15,650.614 414.817,650.947 411.5,651.5C 409.545,651.276 407.879,650.609 406.5,649.5C 405.473,640.43 403.973,631.43 402,622.5C 398.953,622.071 395.786,622.071 392.5,622.5C 393.162,632.499 394.829,642.165 397.5,651.5C 397.473,653.199 396.806,654.533 395.5,655.5C 393.265,655.205 391.265,655.539 389.5,656.5C 384.305,656.179 379.305,656.513 374.5,657.5C 369.833,657.5 365.167,657.5 360.5,657.5C 360.896,649.747 360.396,642.08 359,634.5C 356.962,636.072 354.629,637.072 352,637.5C 351.5,644.158 351.334,650.825 351.5,657.5C 344.151,657.451 336.817,657.118 329.5,656.5C 325.629,656.815 321.962,656.482 318.5,655.5C 317.432,654.566 316.099,654.232 314.5,654.5C 316.347,645.592 317.681,636.592 318.5,627.5C 318.449,625.9 318.116,624.4 317.5,623C 315.236,622.764 313.069,622.264 311,621.5C 310.667,621.833 310.333,622.167 310,622.5C 307.477,632.042 305.644,641.709 304.5,651.5C 301.5,651.5 298.5,651.5 295.5,651.5C 293.901,651.768 292.568,651.434 291.5,650.5C 288.093,648.926 284.427,647.926 280.5,647.5C 276.5,646.167 272.5,644.833 268.5,643.5C 272.264,634.236 275.598,624.736 278.5,615C 278.138,613.566 277.472,612.399 276.5,611.5C 276.389,610.883 276.056,610.383 275.5,610C 330.221,609.654 384.887,609.321 439.5,609C 438.584,609.278 437.918,609.778 437.5,610.5 Z"/></g>
<g><path style="opacity:1" fill="#435b7e" d="M 226.5,625.5 C 221.671,623.566 217.337,620.899 213.5,617.5C 215.288,617.785 216.955,617.452 218.5,616.5C 223.685,608.796 228.352,600.796 232.5,592.5C 232.833,592.167 233.167,591.833 233.5,591.5C 236.371,593.097 239.037,594.93 241.5,597C 237.376,604.678 232.876,612.178 228,619.5C 226.872,621.345 226.372,623.345 226.5,625.5 Z"/></g>
<g><path style="opacity:1" fill="#435b7e" d="M 495.5,618.5 C 492.345,621.581 488.678,623.914 484.5,625.5C 484.702,623.011 484.202,620.677 483,618.5C 478.666,611.651 474.5,604.651 470.5,597.5C 472.277,594.552 474.777,592.552 478,591.5C 482.424,597.342 486.091,603.676 489,610.5C 490.965,613.491 493.132,616.157 495.5,618.5 Z"/></g>
<g><path style="opacity:1" fill="#3c567a" d="M 276.5,611.5 C 277.472,612.399 278.138,613.566 278.5,615C 275.598,624.736 272.264,634.236 268.5,643.5C 264.668,642.557 261.001,641.223 257.5,639.5C 259.446,637.647 260.946,635.314 262,632.5C 264.5,625.166 267,617.833 269.5,610.5C 271.861,610.674 274.194,611.007 276.5,611.5 Z"/></g>
<g><path style="opacity:1" fill="#3e577c" d="M 437.5,610.5 C 439.144,610.286 440.644,610.62 442,611.5C 444.327,618.482 446.661,625.482 449,632.5C 450.352,635.107 451.852,637.44 453.5,639.5C 448.019,642.897 442.019,645.23 435.5,646.5C 437.862,645.142 440.195,643.642 442.5,642C 438.985,632.158 435.652,622.325 432.5,612.5C 434.553,612.598 436.22,611.931 437.5,610.5 Z"/></g>
<g><path style="opacity:1" fill="#395379" d="M 406.5,649.5 C 405.542,649.047 404.708,648.381 404,647.5C 402.599,649.192 400.766,649.859 398.5,649.5C 398.649,648.448 398.483,647.448 398,646.5C 397.506,648.134 397.34,649.801 397.5,651.5C 394.829,642.165 393.162,632.499 392.5,622.5C 395.786,622.071 398.953,622.071 402,622.5C 403.973,631.43 405.473,640.43 406.5,649.5 Z"/></g>
<g><path style="opacity:1" fill="#59304d" d="M 619.5,627.5 C 631.244,633.541 642.91,639.875 654.5,646.5C 643.346,647.495 632.012,647.828 620.5,647.5C 616.06,644.625 612.06,641.291 608.5,637.5C 608.141,635.629 607.141,634.129 605.5,633C 602.888,631.721 600.555,630.055 598.5,628C 604.551,627.792 610.551,627.292 616.5,626.5C 617.417,627.127 618.417,627.461 619.5,627.5 Z"/></g>
<g><path style="opacity:1" fill="#3b557b" d="M 318.5,655.5 C 315.482,655.665 312.482,655.498 309.5,655C 304.881,653.348 300.214,652.181 295.5,651.5C 298.5,651.5 301.5,651.5 304.5,651.5C 305.644,641.709 307.477,632.042 310,622.5C 310.333,622.167 310.667,621.833 311,621.5C 313.069,622.264 315.236,622.764 317.5,623C 318.116,624.4 318.449,625.9 318.5,627.5C 317.681,636.592 316.347,645.592 314.5,654.5C 316.099,654.232 317.432,654.566 318.5,655.5 Z"/></g>
<g><path style="opacity:1" fill="#4c2c4b" d="M 588.5,623.5 C 594.808,628.656 601.475,633.323 608.5,637.5C 612.06,641.291 616.06,644.625 620.5,647.5C 599.167,647.5 577.833,647.5 556.5,647.5C 553.141,640.375 549.808,633.375 546.5,626.5C 546.351,625.448 546.517,624.448 547,623.5C 560.833,624.825 574.667,624.825 588.5,623.5 Z"/></g>
<g><path style="opacity:1" fill="#3f5a80" d="M 360.5,657.5 C 357.5,657.5 354.5,657.5 351.5,657.5C 351.334,650.825 351.5,644.158 352,637.5C 354.629,637.072 356.962,636.072 359,634.5C 360.396,642.08 360.896,649.747 360.5,657.5 Z"/></g>
<g><path style="opacity:1" fill="#576c8e" d="M 406.5,649.5 C 407.879,650.609 409.545,651.276 411.5,651.5C 414.817,650.947 418.15,650.614 421.5,650.5C 412.909,652.377 404.242,654.044 395.5,655.5C 396.806,654.533 397.473,653.199 397.5,651.5C 397.34,649.801 397.506,648.134 398,646.5C 398.483,647.448 398.649,648.448 398.5,649.5C 400.766,649.859 402.599,649.192 404,647.5C 404.708,648.381 405.542,649.047 406.5,649.5 Z"/></g>
<g><path style="opacity:1" fill="#8a96a8" d="M 280.5,647.5 C 284.427,647.926 288.093,648.926 291.5,650.5C 287.466,650.483 283.799,649.483 280.5,647.5 Z"/></g>
<g><path style="opacity:1" fill="#89626f" d="M 654.5,646.5 C 655.492,646.328 656.158,646.662 656.5,647.5C 623.671,648.498 590.671,648.832 557.5,648.5C 556.833,648.5 556.5,648.167 556.5,647.5C 577.833,647.5 599.167,647.5 620.5,647.5C 632.012,647.828 643.346,647.495 654.5,646.5 Z"/></g>
<g><path style="opacity:1" fill="#d5bfc1" d="M 656.5,647.5 C 657.043,647.56 657.376,647.893 657.5,648.5C 624.002,649.83 590.669,649.83 557.5,648.5C 590.671,648.832 623.671,648.498 656.5,647.5 Z"/></g>
<g><path style="opacity:1" fill="#7c8ba1" d="M 329.5,656.5 C 336.817,657.118 344.151,657.451 351.5,657.5C 354.5,657.5 357.5,657.5 360.5,657.5C 365.167,657.5 369.833,657.5 374.5,657.5C 360.647,658.771 346.647,658.771 332.5,657.5C 331.209,657.737 330.209,657.404 329.5,656.5 Z"/></g>
<g><path style="opacity:1" fill="#bec5cf" d="M 389.5,656.5 C 378.913,658.488 368.08,659.488 357,659.5C 349.833,659.333 342.667,659.167 335.5,659C 334.263,658.768 333.263,658.268 332.5,657.5C 346.647,658.771 360.647,658.771 374.5,657.5C 379.305,656.513 384.305,656.179 389.5,656.5 Z"/></g>
</svg>
